<svg version="1.1" viewBox="0.0 0.0 960.0 720.0" fill="none" stroke="none" stroke-linecap="square" stroke-miterlimit="10" xmlns:xlink="http://www.w3.org/1999/xlink" xmlns="http://www.w3.org/2000/svg"><clipPath id="p.0"><path d="m0 0l960.0 0l0 720.0l-960.0 0l0 -720.0z" clip-rule="nonzero"/></clipPath><g clip-path="url(#p.0)"><path fill="#000000" fill-opacity="0.0" d="m0 0l960.0 0l0 720.0l-960.0 0z" fill-rule="evenodd"/><path fill="#000000" fill-opacity="0.0" d="m108.28609 62.960735l395.33856 0l0 111.30708l-395.33856 0z" fill-rule="evenodd"/><path stroke="#000000" stroke-width="4.0" stroke-linejoin="round" stroke-linecap="butt" d="m108.28609 62.960735l395.33856 0l0 111.30708l-395.33856 0z" fill-rule="evenodd"/><path fill="#ffffff" d="m108.28609 81.31281l0 0c0 -10.135574 8.216507 -18.352077 18.352074 -18.352077l87.20136 0c4.867279 0 9.535202 1.9335213 12.976883 5.375202c3.441681 3.441681 5.3751984 8.109596 5.3751984 12.976875l0 73.40609c0 10.135574 -8.216507 18.352066 -18.352081 18.352066l-87.20136 0c-10.135567 0 -18.352074 -8.216492 -18.352074 -18.352066z" fill-rule="evenodd"/><path stroke="#000000" stroke-width="1.0" stroke-linejoin="round" stroke-linecap="butt" d="m108.28609 81.31281l0 0c0 -10.135574 8.216507 -18.352077 18.352074 -18.352077l87.20136 0c4.867279 0 9.535202 1.9335213 12.976883 5.375202c3.441681 3.441681 5.3751984 8.109596 5.3751984 12.976875l0 73.40609c0 10.135574 -8.216507 18.352066 -18.352081 18.352066l-87.20136 0c-10.135567 0 -18.352074 -8.216492 -18.352074 -18.352066z" fill-rule="evenodd"/><path fill="#000000" d="m139.03313 121.75586l0 -7.625l2.859375 0q0.875 0 1.40625 0.234375q0.53125 0.21875 0.828125 0.703125q0.296875 0.484375 0.296875 1.015625q0 0.484375 -0.265625 0.921875q-0.265625 0.421875 -0.796875 0.6875q0.6875 0.203125 1.0625 0.703125q0.375 0.484375 0.375 1.140625q0 0.546875 -0.234375 1.015625q-0.21875 0.453125 -0.5625 0.703125q-0.328125 0.25 -0.828125 0.375q-0.5 0.125 -1.234375 0.125l-2.90625 0zm1.015625 -4.421875l1.640625 0q0.671875 0 0.96875 -0.09375q0.375 -0.109375 0.5625 -0.375q0.203125 -0.265625 0.203125 -0.671875q0 -0.375 -0.1875 -0.65625q-0.171875 -0.296875 -0.515625 -0.40625q-0.328125 -0.109375 -1.15625 -0.109375l-1.515625 0l0 2.3125zm0 3.515625l1.890625 0q0.484375 0 0.6875 -0.03125q0.34375 -0.0625 0.578125 -0.203125q0.234375 -0.15625 0.390625 -0.421875q0.15625 -0.28125 0.15625 -0.65625q0 -0.421875 -0.21875 -0.734375q-0.21875 -0.3125 -0.609375 -0.4375q-0.390625 -0.125 -1.125 -0.125l-1.75 0l0 2.609375zm5.6701355 -1.859375q0 -1.53125 0.84375 -2.265625q0.71875 -0.625 1.734375 -0.625q1.140625 0 1.859375 0.75q0.734375 0.75 0.734375 2.0625q0 1.0625 -0.328125 1.6875q-0.3125 0.609375 -0.921875 0.953125q-0.609375 0.328125 -1.34375 0.328125q-1.15625 0 -1.875 -0.734375q-0.703125 -0.75 -0.703125 -2.15625zm0.953125 0q0 1.0625 0.46875 1.59375q0.46875 0.53125 1.15625 0.53125q0.703125 0 1.15625 -0.53125q0.46875 -0.53125 0.46875 -1.625q0 -1.015625 -0.46875 -1.546875q-0.453125 -0.53125 -1.15625 -0.53125q-0.6875 0 -1.15625 0.53125q-0.46875 0.515625 -0.46875 1.578125zm4.9733734 0q0 -1.53125 0.84375 -2.265625q0.71875 -0.625 1.734375 -0.625q1.140625 0 1.859375 0.75q0.734375 0.75 0.734375 2.0625q0 1.0625 -0.328125 1.6875q-0.3125 0.609375 -0.921875 0.953125q-0.609375 0.328125 -1.34375 0.328125q-1.15625 0 -1.875 -0.734375q-0.703125 -0.75 -0.703125 -2.15625zm0.953125 0q0 1.0625 0.46875 1.59375q0.46875 0.53125 1.15625 0.53125q0.703125 0 1.15625 -0.53125q0.46875 -0.53125 0.46875 -1.625q0 -1.015625 -0.46875 -1.546875q-0.453125 -0.53125 -1.15625 -0.53125q-0.6875 0 -1.15625 0.53125q-0.46875 0.515625 -0.46875 1.578125zm7.3639984 1.921875l0.125 0.828125q-0.390625 0.09375 -0.703125 0.09375q-0.5 0 -0.78125 -0.15625q-0.28125 -0.171875 -0.40625 -0.4375q-0.109375 -0.265625 -0.109375 -1.109375l0 -3.171875l-0.6875 0l0 -0.734375l0.6875 0l0 -1.359375l0.9375 -0.5625l0 1.921875l0.9375 0l0 0.734375l-0.9375 0l0 3.234375q0 0.390625 0.046875 0.515625q0.046875 0.109375 0.15625 0.1875q0.109375 0.0625 0.328125 0.0625q0.15625 0 0.40625 -0.046875zm3.9994202 0.84375l0 -7.625l2.875 0q0.75 0 1.15625 0.0625q0.5625 0.09375 0.9375 0.359375q0.390625 0.265625 0.609375 0.75q0.234375 0.46875 0.234375 1.03125q0 0.96875 -0.625 1.65625q-0.609375 0.671875 -2.234375 0.671875l-1.953125 0l0 3.09375l-1.0 0zm1.0 -4.0l1.96875 0q0.984375 0 1.390625 -0.359375q0.421875 -0.375 0.421875 -1.03125q0 -0.484375 -0.25 -0.8125q-0.234375 -0.34375 -0.640625 -0.453125q-0.25 -0.078125 -0.9375 -0.078125l-1.953125 0l0 2.734375zm9.5920105 3.3125q-0.53125 0.453125 -1.015625 0.640625q-0.46875 0.171875 -1.015625 0.171875q-0.921875 0 -1.40625 -0.4375q-0.484375 -0.453125 -0.484375 -1.140625q0 -0.40625 0.171875 -0.734375q0.1875 -0.34375 0.484375 -0.546875q0.3125 -0.203125 0.6875 -0.3125q0.265625 -0.0625 0.828125 -0.140625q1.125 -0.125 1.671875 -0.3125q0 -0.203125 0 -0.25q0 -0.578125 -0.265625 -0.8125q-0.359375 -0.3125 -1.0625 -0.3125q-0.65625 0 -0.984375 0.234375q-0.3125 0.234375 -0.453125 0.8125l-0.921875 -0.125q0.125 -0.578125 0.40625 -0.9375q0.296875 -0.375 0.828125 -0.5625q0.546875 -0.203125 1.25 -0.203125q0.71875 0 1.15625 0.171875q0.4375 0.171875 0.640625 0.421875q0.21875 0.25 0.296875 0.640625q0.046875 0.234375 0.046875 0.859375l0 1.25q0 1.296875 0.0625 1.65625q0.0625 0.34375 0.234375 0.65625l-0.96875 0q-0.15625 -0.296875 -0.1875 -0.6875zm-0.078125 -2.078125q-0.515625 0.203125 -1.53125 0.34375q-0.578125 0.078125 -0.828125 0.1875q-0.234375 0.109375 -0.359375 0.3125q-0.125 0.1875 -0.125 0.4375q0 0.375 0.28125 0.625q0.28125 0.25 0.828125 0.25q0.53125 0 0.953125 -0.234375q0.421875 -0.234375 0.625 -0.65625q0.15625 -0.3125 0.15625 -0.9375l0 -0.328125zm2.3796234 2.765625l0 -5.53125l0.84375 0l0 0.84375q0.328125 -0.59375 0.59375 -0.78125q0.28125 -0.1875 0.609375 -0.1875q0.46875 0 0.953125 0.3125l-0.3125 0.859375q-0.34375 -0.203125 -0.6875 -0.203125q-0.3125 0 -0.5625 0.1875q-0.234375 0.1875 -0.34375 0.515625q-0.15625 0.5 -0.15625 1.09375l0 2.890625l-0.9375 0zm5.6111145 -0.84375l0.125 0.828125q-0.390625 0.09375 -0.703125 0.09375q-0.5 0 -0.78125 -0.15625q-0.28125 -0.171875 -0.40625 -0.4375q-0.109375 -0.265625 -0.109375 -1.109375l0 -3.171875l-0.6875 0l0 -0.734375l0.6875 0l0 -1.359375l0.9375 -0.5625l0 1.921875l0.9375 0l0 0.734375l-0.9375 0l0 3.234375q0 0.390625 0.046875 0.515625q0.046875 0.109375 0.15625 0.1875q0.109375 0.0625 0.328125 0.0625q0.15625 0 0.40625 -0.046875zm0.9137726 -5.703125l0 -1.078125l0.9375 0l0 1.078125l-0.9375 0zm0 6.546875l0 -5.53125l0.9375 0l0 5.53125l-0.9375 0zm4.4143524 -0.84375l0.125 0.828125q-0.390625 0.09375 -0.703125 0.09375q-0.5 0 -0.78125 -0.15625q-0.28125 -0.171875 -0.40625 -0.4375q-0.109375 -0.265625 -0.109375 -1.109375l0 -3.171875l-0.6875 0l0 -0.734375l0.6875 0l0 -1.359375l0.9375 -0.5625l0 1.921875l0.9375 0l0 0.734375l-0.9375 0l0 3.234375q0 0.390625 0.046875 0.515625q0.046875 0.109375 0.15625 0.1875q0.109375 0.0625 0.328125 0.0625q0.15625 0 0.40625 -0.046875zm0.9137726 -5.703125l0 -1.078125l0.9375 0l0 1.078125l-0.9375 0zm0 6.546875l0 -5.53125l0.9375 0l0 5.53125l-0.9375 0zm2.0237274 -2.765625q0 -1.53125 0.84375 -2.265625q0.71875 -0.625 1.734375 -0.625q1.140625 0 1.859375 0.75q0.734375 0.75 0.734375 2.0625q0 1.0625 -0.328125 1.6875q-0.3125 0.609375 -0.921875 0.953125q-0.609375 0.328125 -1.34375 0.328125q-1.15625 0 -1.875 -0.734375q-0.703125 -0.75 -0.703125 -2.15625zm0.953125 0q0 1.0625 0.46875 1.59375q0.46875 0.53125 1.15625 0.53125q0.703125 0 1.15625 -0.53125q0.46875 -0.53125 0.46875 -1.625q0 -1.015625 -0.46875 -1.546875q-0.453125 -0.53125 -1.15625 -0.53125q-0.6875 0 -1.15625 0.53125q-0.46875 0.515625 -0.46875 1.578125zm5.3171234 2.765625l0 -5.53125l0.84375 0l0 0.796875q0.609375 -0.921875 1.75 -0.921875q0.5 0 0.921875 0.1875q0.421875 0.171875 0.625 0.46875q0.21875 0.296875 0.296875 0.6875q0.046875 0.265625 0.046875 0.921875l0 3.390625l-0.9375 0l0 -3.359375q0 -0.578125 -0.109375 -0.859375q-0.109375 -0.28125 -0.390625 -0.453125q-0.265625 -0.171875 -0.640625 -0.171875q-0.59375 0 -1.03125 0.390625q-0.4375 0.375 -0.4375 1.4375l0 3.015625l-0.9375 0z" fill-rule="nonzero"/><path fill="#ffffff" d="m232.20659 81.51229l0 0c0 -10.245743 8.305817 -18.551556 18.551544 -18.551556l234.29848 0c4.920166 0 9.638824 1.9545326 13.11792 5.433628c3.4790955 3.4790878 5.4336243 8.197746 5.4336243 13.117928l0 74.20399c0 10.245728 -8.305817 18.551544 -18.551544 18.551544l-234.29848 0l0 0c-10.245728 0 -18.551544 -8.305817 -18.551544 -18.551544z" fill-rule="evenodd"/><path stroke="#000000" stroke-width="1.0" stroke-linejoin="round" stroke-linecap="butt" d="m232.20659 81.51229l0 0c0 -10.245743 8.305817 -18.551556 18.551544 -18.551556l234.29848 0c4.920166 0 9.638824 1.9545326 13.11792 5.433628c3.4790955 3.4790878 5.4336243 8.197746 5.4336243 13.117928l0 74.20399c0 10.245728 -8.305817 18.551544 -18.551544 18.551544l-234.29848 0l0 0c-10.245728 0 -18.551544 -8.305817 -18.551544 -18.551544z" fill-rule="evenodd"/><path fill="#ffffff" d="m233.99245 97.00004l0 0c0 -8.404755 6.8134003 -15.218147 15.218155 -15.218147l235.64243 0c4.0361023 0 7.9069214 1.6033325 10.760864 4.4572906c2.8539734 2.8539581 4.457306 6.7247543 4.457306 10.760857l0 60.87078c0 8.404755 -6.8134155 15.218155 -15.21817 15.218155l-235.64243 0c-8.404755 0 -15.218155 -6.8134003 -15.218155 -15.218155z" fill-rule="evenodd"/><path stroke="#000000" stroke-width="1.0" stroke-linejoin="round" stroke-linecap="butt" d="m233.99245 97.00004l0 0c0 -8.404755 6.8134003 -15.218147 15.218155 -15.218147l235.64243 0c4.0361023 0 7.9069214 1.6033325 10.760864 4.4572906c2.8539734 2.8539581 4.457306 6.7247543 4.457306 10.760857l0 60.87078c0 8.404755 -6.8134155 15.218155 -15.21817 15.218155l-235.64243 0c-8.404755 0 -15.218155 -6.8134003 -15.218155 -15.218155z" fill-rule="evenodd"/><path fill="#000000" fill-opacity="0.0" d="m297.51212 58.257744l126.58267 0l0 32.314964l-126.58267 0z" fill-rule="evenodd"/><path fill="#000000" d="m307.35587 77.49774l0 -7.625l5.515625 0l0 0.890625l-4.5 0l0 2.34375l4.21875 0l0 0.890625l-4.21875 0l0 2.59375l4.671875 0l0 0.90625l-5.6875 0zm6.3420105 0l2.015625 -2.875l-1.859375 -2.65625l1.171875 0l0.84375 1.296875q0.234375 0.375 0.390625 0.625q0.21875 -0.34375 0.40625 -0.609375l0.9375 -1.3125l1.125 0l-1.921875 2.609375l2.0625 2.921875l-1.15625 0l-1.125 -1.71875l-0.296875 -0.46875l-1.453125 2.1875l-1.140625 0zm8.0 -0.84375l0.125 0.828125q-0.390625 0.09375 -0.703125 0.09375q-0.5 0 -0.78125 -0.15625q-0.28125 -0.171875 -0.40625 -0.4375q-0.109375 -0.265625 -0.109375 -1.109375l0 -3.171875l-0.6875 0l0 -0.734375l0.6875 0l0 -1.359375l0.9375 -0.5625l0 1.921875l0.9375 0l0 0.734375l-0.9375 0l0 3.234375q0 0.390625 0.046875 0.515625q0.046875 0.109375 0.15625 0.1875q0.109375 0.0625 0.328125 0.0625q0.15625 0 0.40625 -0.046875zm4.6950073 -0.9375l0.96875 0.125q-0.234375 0.84375 -0.859375 1.3125q-0.609375 0.46875 -1.578125 0.46875q-1.203125 0 -1.921875 -0.75q-0.703125 -0.75 -0.703125 -2.09375q0 -1.390625 0.71875 -2.15625q0.71875 -0.78125 1.859375 -0.78125q1.109375 0 1.8125 0.765625q0.703125 0.75 0.703125 2.125q0 0.078125 0 0.234375l-4.125 0q0.046875 0.921875 0.515625 1.40625q0.46875 0.484375 1.15625 0.484375q0.515625 0 0.875 -0.265625q0.359375 -0.28125 0.578125 -0.875zm-3.078125 -1.515625l3.09375 0q-0.0625 -0.6875 -0.359375 -1.046875q-0.453125 -0.53125 -1.15625 -0.53125q-0.640625 0 -1.09375 0.4375q-0.4375 0.421875 -0.484375 1.140625zm5.2233887 3.296875l0 -5.53125l0.84375 0l0 0.796875q0.609375 -0.921875 1.75 -0.921875q0.5 0 0.921875 0.1875q0.421875 0.171875 0.625 0.46875q0.21875 0.296875 0.296875 0.6875q0.046875 0.265625 0.046875 0.921875l0 3.390625l-0.9375 0l0 -3.359375q0 -0.578125 -0.109375 -0.859375q-0.109375 -0.28125 -0.390625 -0.453125q-0.265625 -0.171875 -0.640625 -0.171875q-0.59375 0 -1.03125 0.390625q-0.4375 0.375 -0.4375 1.4375l0 3.015625l-0.9375 0zm9.504608 0l0 -0.703125q-0.515625 0.828125 -1.546875 0.828125q-0.65625 0 -1.21875 -0.359375q-0.546875 -0.375 -0.859375 -1.015625q-0.296875 -0.65625 -0.296875 -1.5q0 -0.828125 0.28125 -1.5q0.28125 -0.6875 0.828125 -1.046875q0.546875 -0.359375 1.234375 -0.359375q0.5 0 0.890625 0.21875q0.390625 0.203125 0.625 0.546875l0 -2.734375l0.9375 0l0 7.625l-0.875 0zm-2.953125 -2.75q0 1.046875 0.4375 1.578125q0.453125 0.53125 1.0625 0.53125q0.609375 0 1.03125 -0.5q0.4375 -0.515625 0.4375 -1.53125q0 -1.140625 -0.4375 -1.671875q-0.4375 -0.53125 -1.078125 -0.53125q-0.609375 0 -1.03125 0.515625q-0.421875 0.5 -0.421875 1.609375zm9.082764 0.96875l0.96875 0.125q-0.234375 0.84375 -0.859375 1.3125q-0.609375 0.46875 -1.578125 0.46875q-1.203125 0 -1.921875 -0.75q-0.703125 -0.75 -0.703125 -2.09375q0 -1.390625 0.71875 -2.15625q0.71875 -0.78125 1.859375 -0.78125q1.109375 0 1.8125 0.765625q0.703125 0.75 0.703125 2.125q0 0.078125 0 0.234375l-4.125 0q0.046875 0.921875 0.515625 1.40625q0.46875 0.484375 1.15625 0.484375q0.515625 0 0.875 -0.265625q0.359375 -0.28125 0.578125 -0.875zm-3.078125 -1.515625l3.09375 0q-0.0625 -0.6875 -0.359375 -1.046875q-0.453125 -0.53125 -1.15625 -0.53125q-0.640625 0 -1.09375 0.4375q-0.4375 0.421875 -0.484375 1.140625zm8.801483 3.296875l0 -0.703125q-0.515625 0.828125 -1.546875 0.828125q-0.65625 0 -1.21875 -0.359375q-0.546875 -0.375 -0.859375 -1.015625q-0.296875 -0.65625 -0.296875 -1.5q0 -0.828125 0.28125 -1.5q0.28125 -0.6875 0.828125 -1.046875q0.546875 -0.359375 1.234375 -0.359375q0.5 0 0.890625 0.21875q0.390625 0.203125 0.625 0.546875l0 -2.734375l0.9375 0l0 7.625l-0.875 0zm-2.953125 -2.75q0 1.046875 0.4375 1.578125q0.453125 0.53125 1.0625 0.53125q0.609375 0 1.03125 -0.5q0.4375 -0.515625 0.4375 -1.53125q0 -1.140625 -0.4375 -1.671875q-0.4375 -0.53125 -1.078125 -0.53125q-0.609375 0 -1.03125 0.515625q-0.421875 0.5 -0.421875 1.609375zm8.387146 2.75l0 -7.625l2.875 0q0.75 0 1.15625 0.0625q0.5625 0.09375 0.9375 0.359375q0.390625 0.265625 0.609375 0.75q0.234375 0.46875 0.234375 1.03125q0 0.96875 -0.625 1.65625q-0.609375 0.671875 -2.234375 0.671875l-1.953125 0l0 3.09375l-1.0 0zm1.0 -4.0l1.96875 0q0.984375 0 1.390625 -0.359375q0.421875 -0.375 0.421875 -1.03125q0 -0.484375 -0.25 -0.8125q-0.234375 -0.34375 -0.640625 -0.453125q-0.25 -0.078125 -0.9375 -0.078125l-1.953125 0l0 2.734375zm9.5920105 3.3125q-0.53125 0.453125 -1.015625 0.640625q-0.46875 0.171875 -1.015625 0.171875q-0.921875 0 -1.40625 -0.4375q-0.484375 -0.453125 -0.484375 -1.140625q0 -0.40625 0.171875 -0.734375q0.1875 -0.34375 0.484375 -0.546875q0.3125 -0.203125 0.6875 -0.3125q0.265625 -0.0625 0.828125 -0.140625q1.125 -0.125 1.671875 -0.3125q0 -0.203125 0 -0.25q0 -0.578125 -0.265625 -0.8125q-0.359375 -0.3125 -1.0625 -0.3125q-0.65625 0 -0.984375 0.234375q-0.3125 0.234375 -0.453125 0.8125l-0.921875 -0.125q0.125 -0.578125 0.40625 -0.9375q0.296875 -0.375 0.828125 -0.5625q0.546875 -0.203125 1.25 -0.203125q0.71875 0 1.15625 0.171875q0.4375 0.171875 0.640625 0.421875q0.21875 0.25 0.296875 0.640625q0.046875 0.234375 0.046875 0.859375l0 1.25q0 1.296875 0.0625 1.65625q0.0625 0.34375 0.234375 0.65625l-0.96875 0q-0.15625 -0.296875 -0.1875 -0.6875zm-0.078125 -2.078125q-0.515625 0.203125 -1.53125 0.34375q-0.578125 0.078125 -0.828125 0.1875q-0.234375 0.109375 -0.359375 0.3125q-0.125 0.1875 -0.125 0.4375q0 0.375 0.28125 0.625q0.28125 0.25 0.828125 0.25q0.53125 0 0.953125 -0.234375q0.421875 -0.234375 0.625 -0.65625q0.15625 -0.3125 0.15625 -0.9375l0 -0.328125zm2.3796387 2.765625l0 -5.53125l0.84375 0l0 0.84375q0.328125 -0.59375 0.59375 -0.78125q0.28125 -0.1875 0.609375 -0.1875q0.46875 0 0.953125 0.3125l-0.3125 0.859375q-0.34375 -0.203125 -0.6875 -0.203125q-0.3125 0 -0.5625 0.1875q-0.234375 0.1875 -0.34375 0.515625q-0.15625 0.5 -0.15625 1.09375l0 2.890625l-0.9375 0zm5.6111145 -0.84375l0.125 0.828125q-0.390625 0.09375 -0.703125 0.09375q-0.5 0 -0.78125 -0.15625q-0.28125 -0.171875 -0.40625 -0.4375q-0.109375 -0.265625 -0.109375 -1.109375l0 -3.171875l-0.6875 0l0 -0.734375l0.6875 0l0 -1.359375l0.9375 -0.5625l0 1.921875l0.9375 0l0 0.734375l-0.9375 0l0 3.234375q0 0.390625 0.046875 0.515625q0.046875 0.109375 0.15625 0.1875q0.109375 0.0625 0.328125 0.0625q0.15625 0 0.40625 -0.046875zm0.9137573 -5.703125l0 -1.078125l0.9375 0l0 1.078125l-0.9375 0zm0 6.546875l0 -5.53125l0.9375 0l0 5.53125l-0.9375 0zm4.4143677 -0.84375l0.125 0.828125q-0.390625 0.09375 -0.703125 0.09375q-0.5 0 -0.78125 -0.15625q-0.28125 -0.171875 -0.40625 -0.4375q-0.109375 -0.265625 -0.109375 -1.109375l0 -3.171875l-0.6875 0l0 -0.734375l0.6875 0l0 -1.359375l0.9375 -0.5625l0 1.921875l0.9375 0l0 0.734375l-0.9375 0l0 3.234375q0 0.390625 0.046875 0.515625q0.046875 0.109375 0.15625 0.1875q0.109375 0.0625 0.328125 0.0625q0.15625 0 0.40625 -0.046875zm0.9137573 -5.703125l0 -1.078125l0.9375 0l0 1.078125l-0.9375 0zm0 6.546875l0 -5.53125l0.9375 0l0 5.53125l-0.9375 0zm2.0237427 -2.765625q0 -1.53125 0.84375 -2.265625q0.71875 -0.625 1.734375 -0.625q1.140625 0 1.859375 0.75q0.734375 0.75 0.734375 2.0625q0 1.0625 -0.328125 1.6875q-0.3125 0.609375 -0.921875 0.953125q-0.609375 0.328125 -1.34375 0.328125q-1.15625 0 -1.875 -0.734375q-0.703125 -0.75 -0.703125 -2.15625zm0.953125 0q0 1.0625 0.46875 1.59375q0.46875 0.53125 1.15625 0.53125q0.703125 0 1.15625 -0.53125q0.46875 -0.53125 0.46875 -1.625q0 -1.015625 -0.46875 -1.546875q-0.453125 -0.53125 -1.15625 -0.53125q-0.6875 0 -1.15625 0.53125q-0.46875 0.515625 -0.46875 1.578125zm5.317108 2.765625l0 -5.53125l0.84375 0l0 0.796875q0.609375 -0.921875 1.75 -0.921875q0.5 0 0.921875 0.1875q0.421875 0.171875 0.625 0.46875q0.21875 0.296875 0.296875 0.6875q0.046875 0.265625 0.046875 0.921875l0 3.390625l-0.9375 0l0 -3.359375q0 -0.578125 -0.109375 -0.859375q-0.109375 -0.28125 -0.390625 -0.453125q-0.265625 -0.171875 -0.640625 -0.171875q-0.59375 0 -1.03125 0.390625q-0.4375 0.375 -0.4375 1.4375l0 3.015625l-0.9375 0z" fill-rule="nonzero"/><path fill="#000000" fill-opacity="0.0" d="m299.4066 76.27725l126.58267 0l0 32.314964l-126.58267 0z" fill-rule="evenodd"/><path fill="#000000" d="m309.18784 95.51725l0 -7.625l1.015625 0l0 6.71875l3.75 0l0 0.90625l-4.765625 0zm5.5046387 -2.765625q0 -1.53125 0.84375 -2.265625q0.71875 -0.625 1.734375 -0.625q1.140625 0 1.859375 0.75q0.734375 0.75 0.734375 2.0625q0 1.0625 -0.328125 1.6875q-0.3125 0.609375 -0.921875 0.953125q-0.609375 0.328125 -1.34375 0.328125q-1.15625 0 -1.875 -0.734375q-0.703125 -0.75 -0.703125 -2.15625zm0.953125 0q0 1.0625 0.46875 1.59375q0.46875 0.53125 1.15625 0.53125q0.703125 0 1.15625 -0.53125q0.46875 -0.53125 0.46875 -1.625q0 -1.015625 -0.46875 -1.546875q-0.453125 -0.53125 -1.15625 -0.53125q-0.6875 0 -1.15625 0.53125q-0.46875 0.515625 -0.46875 1.578125zm5.145233 3.21875l0.90625 0.140625q0.0625 0.421875 0.328125 0.609375q0.34375 0.265625 0.9375 0.265625q0.65625 0 1.0 -0.265625q0.359375 -0.25 0.484375 -0.71875q0.078125 -0.296875 0.078125 -1.203125q-0.625 0.71875 -1.53125 0.71875q-1.140625 0 -1.765625 -0.8125q-0.625 -0.828125 -0.625 -1.984375q0 -0.78125 0.28125 -1.453125q0.296875 -0.671875 0.828125 -1.03125q0.546875 -0.375 1.28125 -0.375q0.984375 0 1.609375 0.796875l0 -0.671875l0.875 0l0 4.78125q0 1.296875 -0.265625 1.828125q-0.265625 0.546875 -0.84375 0.859375q-0.5625 0.3125 -1.390625 0.3125q-0.984375 0 -1.59375 -0.453125q-0.609375 -0.4375 -0.59375 -1.34375zm0.78125 -3.3125q0 1.078125 0.421875 1.578125q0.4375 0.5 1.078125 0.5q0.65625 0 1.09375 -0.484375q0.4375 -0.5 0.4375 -1.5625q0 -1.015625 -0.453125 -1.53125q-0.453125 -0.515625 -1.09375 -0.515625q-0.609375 0 -1.046875 0.515625q-0.4375 0.5 -0.4375 1.5zm5.3171387 -3.6875l0 -1.078125l0.9375 0l0 1.078125l-0.9375 0zm0 6.546875l0 -5.53125l0.9375 0l0 5.53125l-0.9375 0zm5.976837 -2.03125l0.921875 0.125q-0.15625 0.953125 -0.78125 1.5q-0.625 0.53125 -1.53125 0.53125q-1.125 0 -1.8125 -0.734375q-0.6875 -0.75 -0.6875 -2.125q0 -0.90625 0.296875 -1.578125q0.296875 -0.671875 0.890625 -1.0q0.609375 -0.34375 1.328125 -0.34375q0.890625 0 1.46875 0.46875q0.578125 0.453125 0.734375 1.28125l-0.90625 0.140625q-0.140625 -0.546875 -0.46875 -0.828125q-0.328125 -0.28125 -0.796875 -0.28125q-0.703125 0 -1.15625 0.515625q-0.4375 0.5 -0.4375 1.59375q0 1.109375 0.421875 1.625q0.4375 0.5 1.125 0.5q0.546875 0 0.90625 -0.34375q0.375 -0.34375 0.484375 -1.046875zm5.328125 1.34375q-0.53125 0.453125 -1.015625 0.640625q-0.46875 0.171875 -1.015625 0.171875q-0.921875 0 -1.40625 -0.4375q-0.484375 -0.453125 -0.484375 -1.140625q0 -0.40625 0.171875 -0.734375q0.1875 -0.34375 0.484375 -0.546875q0.3125 -0.203125 0.6875 -0.3125q0.265625 -0.0625 0.828125 -0.140625q1.125 -0.125 1.671875 -0.3125q0 -0.203125 0 -0.25q0 -0.578125 -0.265625 -0.8125q-0.359375 -0.3125 -1.0625 -0.3125q-0.65625 0 -0.984375 0.234375q-0.3125 0.234375 -0.453125 0.8125l-0.921875 -0.125q0.125 -0.578125 0.40625 -0.9375q0.296875 -0.375 0.828125 -0.5625q0.546875 -0.203125 1.25 -0.203125q0.71875 0 1.15625 0.171875q0.4375 0.171875 0.640625 0.421875q0.21875 0.25 0.296875 0.640625q0.046875 0.234375 0.046875 0.859375l0 1.25q0 1.296875 0.0625 1.65625q0.0625 0.34375 0.234375 0.65625l-0.96875 0q-0.15625 -0.296875 -0.1875 -0.6875zm-0.078125 -2.078125q-0.515625 0.203125 -1.53125 0.34375q-0.578125 0.078125 -0.828125 0.1875q-0.234375 0.109375 -0.359375 0.3125q-0.125 0.1875 -0.125 0.4375q0 0.375 0.28125 0.625q0.28125 0.25 0.828125 0.25q0.53125 0 0.953125 -0.234375q0.421875 -0.234375 0.625 -0.65625q0.15625 -0.3125 0.15625 -0.9375l0 -0.328125zm2.3796387 2.765625l0 -7.625l0.9375 0l0 7.625l-0.9375 0zm5.46875 0l0 -7.625l2.875 0q0.75 0 1.15625 0.0625q0.5625 0.09375 0.9375 0.359375q0.390625 0.265625 0.609375 0.75q0.234375 0.46875 0.234375 1.03125q0 0.96875 -0.625 1.65625q-0.609375 0.671875 -2.234375 0.671875l-1.953125 0l0 3.09375l-1.0 0zm1.0 -4.0l1.96875 0q0.984375 0 1.390625 -0.359375q0.421875 -0.375 0.421875 -1.03125q0 -0.484375 -0.25 -0.8125q-0.234375 -0.34375 -0.640625 -0.453125q-0.25 -0.078125 -0.9375 -0.078125l-1.953125 0l0 2.734375zm9.5920105 3.3125q-0.53125 0.453125 -1.015625 0.640625q-0.46875 0.171875 -1.015625 0.171875q-0.921875 0 -1.40625 -0.4375q-0.484375 -0.453125 -0.484375 -1.140625q0 -0.40625 0.171875 -0.734375q0.1875 -0.34375 0.484375 -0.546875q0.3125 -0.203125 0.6875 -0.3125q0.265625 -0.0625 0.828125 -0.140625q1.125 -0.125 1.671875 -0.3125q0 -0.203125 0 -0.25q0 -0.578125 -0.265625 -0.8125q-0.359375 -0.3125 -1.0625 -0.3125q-0.65625 0 -0.984375 0.234375q-0.3125 0.234375 -0.453125 0.8125l-0.921875 -0.125q0.125 -0.578125 0.40625 -0.9375q0.296875 -0.375 0.828125 -0.5625q0.546875 -0.203125 1.25 -0.203125q0.71875 0 1.15625 0.171875q0.4375 0.171875 0.640625 0.421875q0.21875 0.25 0.296875 0.640625q0.046875 0.234375 0.046875 0.859375l0 1.25q0 1.296875 0.0625 1.65625q0.0625 0.34375 0.234375 0.65625l-0.96875 0q-0.15625 -0.296875 -0.1875 -0.6875zm-0.078125 -2.078125q-0.515625 0.203125 -1.53125 0.34375q-0.578125 0.078125 -0.828125 0.1875q-0.234375 0.109375 -0.359375 0.3125q-0.125 0.1875 -0.125 0.4375q0 0.375 0.28125 0.625q0.28125 0.25 0.828125 0.25q0.53125 0 0.953125 -0.234375q0.421875 -0.234375 0.625 -0.65625q0.15625 -0.3125 0.15625 -0.9375l0 -0.328125zm2.3796082 2.765625l0 -5.53125l0.84375 0l0 0.84375q0.328125 -0.59375 0.59375 -0.78125q0.28125 -0.1875 0.609375 -0.1875q0.46875 0 0.953125 0.3125l-0.3125 0.859375q-0.34375 -0.203125 -0.6875 -0.203125q-0.3125 0 -0.5625 0.1875q-0.234375 0.1875 -0.34375 0.515625q-0.15625 0.5 -0.15625 1.09375l0 2.890625l-0.9375 0zm5.6111145 -0.84375l0.125 0.828125q-0.390625 0.09375 -0.703125 0.09375q-0.5 0 -0.78125 -0.15625q-0.28125 -0.171875 -0.40625 -0.4375q-0.109375 -0.265625 -0.109375 -1.109375l0 -3.171875l-0.6875 0l0 -0.734375l0.6875 0l0 -1.359375l0.9375 -0.5625l0 1.921875l0.9375 0l0 0.734375l-0.9375 0l0 3.234375q0 0.390625 0.046875 0.515625q0.046875 0.109375 0.15625 0.1875q0.109375 0.0625 0.328125 0.0625q0.15625 0 0.40625 -0.046875zm0.91378784 -5.703125l0 -1.078125l0.9375 0l0 1.078125l-0.9375 0zm0 6.546875l0 -5.53125l0.9375 0l0 5.53125l-0.9375 0zm4.414337 -0.84375l0.125 0.828125q-0.390625 0.09375 -0.703125 0.09375q-0.5 0 -0.78125 -0.15625q-0.28125 -0.171875 -0.40625 -0.4375q-0.109375 -0.265625 -0.109375 -1.109375l0 -3.171875l-0.6875 0l0 -0.734375l0.6875 0l0 -1.359375l0.9375 -0.5625l0 1.921875l0.9375 0l0 0.734375l-0.9375 0l0 3.234375q0 0.390625 0.046875 0.515625q0.046875 0.109375 0.15625 0.1875q0.109375 0.0625 0.328125 0.0625q0.15625 0 0.40625 -0.046875zm0.91378784 -5.703125l0 -1.078125l0.9375 0l0 1.078125l-0.9375 0zm0 6.546875l0 -5.53125l0.9375 0l0 5.53125l-0.9375 0zm2.0237122 -2.765625q0 -1.53125 0.84375 -2.265625q0.71875 -0.625 1.734375 -0.625q1.140625 0 1.859375 0.75q0.734375 0.75 0.734375 2.0625q0 1.0625 -0.328125 1.6875q-0.3125 0.609375 -0.921875 0.953125q-0.609375 0.328125 -1.34375 0.328125q-1.15625 0 -1.875 -0.734375q-0.703125 -0.75 -0.703125 -2.15625zm0.953125 0q0 1.0625 0.46875 1.59375q0.46875 0.53125 1.15625 0.53125q0.703125 0 1.15625 -0.53125q0.46875 -0.53125 0.46875 -1.625q0 -1.015625 -0.46875 -1.546875q-0.453125 -0.53125 -1.15625 -0.53125q-0.6875 0 -1.15625 0.53125q-0.46875 0.515625 -0.46875 1.578125zm5.3171387 2.765625l0 -5.53125l0.84375 0l0 0.796875q0.609375 -0.921875 1.75 -0.921875q0.5 0 0.921875 0.1875q0.421875 0.171875 0.625 0.46875q0.21875 0.296875 0.296875 0.6875q0.046875 0.265625 0.046875 0.921875l0 3.390625l-0.9375 0l0 -3.359375q0 -0.578125 -0.109375 -0.859375q-0.109375 -0.28125 -0.390625 -0.453125q-0.265625 -0.171875 -0.640625 -0.171875q-0.59375 0 -1.03125 0.390625q-0.4375 0.375 -0.4375 1.4375l0 3.015625l-0.9375 0z" fill-rule="nonzero"/><path fill="#ffffff" d="m236.33247 113.081825l0 0c0 -6.450699 5.2293396 -11.680023 11.680038 -11.680023l237.71082 0c3.0977173 0 6.0686035 1.2305756 8.259033 3.4209976c2.1904297 2.1904297 3.42099 5.161293 3.42099 8.259026l0 46.718697c0 6.450699 -5.2293396 11.680023 -11.680023 11.680023l-237.71082 0c-6.450699 0 -11.680038 -5.2293243 -11.680038 -11.680023z" fill-rule="evenodd"/><path stroke="#000000" stroke-width="1.0" stroke-linejoin="round" stroke-linecap="butt" d="m236.33247 113.081825l0 0c0 -6.450699 5.2293396 -11.680023 11.680038 -11.680023l237.71082 0c3.0977173 0 6.0686035 1.2305756 8.259033 3.4209976c2.1904297 2.1904297 3.42099 5.161293 3.42099 8.259026l0 46.718697c0 6.450699 -5.2293396 11.680023 -11.680023 11.680023l-237.71082 0c-6.450699 0 -11.680038 -5.2293243 -11.680038 -11.680023z" fill-rule="evenodd"/><path fill="#000000" fill-opacity="0.0" d="m299.4066 94.667854l112.1575 0l0 32.314957l-112.1575 0z" fill-rule="evenodd"/><path fill="#000000" d="m309.2347 113.90785l0 -7.625l2.875 0q0.75 0 1.15625 0.0625q0.5625 0.09375 0.9375 0.359375q0.390625 0.265625 0.609375 0.75q0.234375 0.46875 0.234375 1.03125q0 0.96875 -0.625 1.65625q-0.609375 0.671875 -2.234375 0.671875l-1.953125 0l0 3.09375l-1.0 0zm1.0 -4.0l1.96875 0q0.984375 0 1.390625 -0.359375q0.421875 -0.375 0.421875 -1.03125q0 -0.484375 -0.25 -0.8125q-0.234375 -0.34375 -0.640625 -0.453125q-0.25 -0.078125 -0.9375 -0.078125l-1.953125 0l0 2.734375zm5.9826355 4.0l0 -7.625l0.9375 0l0 2.734375q0.65625 -0.765625 1.65625 -0.765625q0.609375 0 1.0625 0.25q0.453125 0.234375 0.640625 0.671875q0.203125 0.421875 0.203125 1.234375l0 3.5l-0.9375 0l0 -3.5q0 -0.703125 -0.3125 -1.015625q-0.296875 -0.328125 -0.859375 -0.328125q-0.40625 0 -0.78125 0.21875q-0.359375 0.21875 -0.515625 0.59375q-0.15625 0.359375 -0.15625 1.015625l0 3.015625l-0.9375 0zm5.8796387 2.125l-0.09375 -0.875q0.296875 0.078125 0.53125 0.078125q0.3125 0 0.5 -0.109375q0.1875 -0.09375 0.3125 -0.28125q0.078125 -0.140625 0.28125 -0.703125q0.03125 -0.078125 0.078125 -0.21875l-2.09375 -5.546875l1.015625 0l1.140625 3.203125q0.234375 0.609375 0.40625 1.28125q0.15625 -0.640625 0.375 -1.265625l1.1875 -3.21875l0.9375 0l-2.109375 5.625q-0.328125 0.90625 -0.515625 1.25q-0.25 0.46875 -0.578125 0.6875q-0.3125 0.21875 -0.765625 0.21875q-0.265625 0 -0.609375 -0.125zm5.0 -3.78125l0.921875 -0.140625q0.078125 0.5625 0.4375 0.859375q0.359375 0.296875 1.0 0.296875q0.640625 0 0.953125 -0.265625q0.3125 -0.265625 0.3125 -0.625q0 -0.3125 -0.28125 -0.5q-0.1875 -0.125 -0.953125 -0.3125q-1.03125 -0.265625 -1.4375 -0.453125q-0.390625 -0.1875 -0.59375 -0.515625q-0.203125 -0.34375 -0.203125 -0.75q0 -0.359375 0.171875 -0.671875q0.171875 -0.328125 0.453125 -0.53125q0.21875 -0.15625 0.59375 -0.265625q0.390625 -0.125 0.8125 -0.125q0.65625 0 1.140625 0.1875q0.5 0.1875 0.734375 0.515625q0.234375 0.3125 0.3125 0.859375l-0.90625 0.125q-0.0625 -0.4375 -0.375 -0.671875q-0.296875 -0.234375 -0.828125 -0.234375q-0.65625 0 -0.9375 0.21875q-0.265625 0.203125 -0.265625 0.484375q0 0.1875 0.109375 0.328125q0.125 0.15625 0.359375 0.25q0.140625 0.0625 0.828125 0.25q1.0 0.265625 1.390625 0.4375q0.390625 0.15625 0.609375 0.484375q0.234375 0.3125 0.234375 0.796875q0 0.46875 -0.28125 0.890625q-0.265625 0.40625 -0.78125 0.640625q-0.515625 0.21875 -1.171875 0.21875q-1.078125 0 -1.640625 -0.4375q-0.5625 -0.453125 -0.71875 -1.34375zm5.703125 -4.890625l0 -1.078125l0.9375 0l0 1.078125l-0.9375 0zm0 6.546875l0 -5.53125l0.9375 0l0 5.53125l-0.9375 0zm5.976837 -2.03125l0.921875 0.125q-0.15625 0.953125 -0.78125 1.5q-0.625 0.53125 -1.53125 0.53125q-1.125 0 -1.8125 -0.734375q-0.6875 -0.75 -0.6875 -2.125q0 -0.90625 0.296875 -1.578125q0.296875 -0.671875 0.890625 -1.0q0.609375 -0.34375 1.328125 -0.34375q0.890625 0 1.46875 0.46875q0.578125 0.453125 0.734375 1.28125l-0.90625 0.140625q-0.140625 -0.546875 -0.46875 -0.828125q-0.328125 -0.28125 -0.796875 -0.28125q-0.703125 0 -1.15625 0.515625q-0.4375 0.5 -0.4375 1.59375q0 1.109375 0.421875 1.625q0.4375 0.5 1.125 0.5q0.546875 0 0.90625 -0.34375q0.375 -0.34375 0.484375 -1.046875zm5.328125 1.34375q-0.53125 0.453125 -1.015625 0.640625q-0.46875 0.171875 -1.015625 0.171875q-0.921875 0 -1.40625 -0.4375q-0.484375 -0.453125 -0.484375 -1.140625q0 -0.40625 0.171875 -0.734375q0.1875 -0.34375 0.484375 -0.546875q0.3125 -0.203125 0.6875 -0.3125q0.265625 -0.0625 0.828125 -0.140625q1.125 -0.125 1.671875 -0.3125q0 -0.203125 0 -0.25q0 -0.578125 -0.265625 -0.8125q-0.359375 -0.3125 -1.0625 -0.3125q-0.65625 0 -0.984375 0.234375q-0.3125 0.234375 -0.453125 0.8125l-0.921875 -0.125q0.125 -0.578125 0.40625 -0.9375q0.296875 -0.375 0.828125 -0.5625q0.546875 -0.203125 1.25 -0.203125q0.71875 0 1.15625 0.171875q0.4375 0.171875 0.640625 0.421875q0.21875 0.25 0.296875 0.640625q0.046875 0.234375 0.046875 0.859375l0 1.25q0 1.296875 0.0625 1.65625q0.0625 0.34375 0.234375 0.65625l-0.96875 0q-0.15625 -0.296875 -0.1875 -0.6875zm-0.078125 -2.078125q-0.515625 0.203125 -1.53125 0.34375q-0.578125 0.078125 -0.828125 0.1875q-0.234375 0.109375 -0.359375 0.3125q-0.125 0.1875 -0.125 0.4375q0 0.375 0.28125 0.625q0.28125 0.25 0.828125 0.25q0.53125 0 0.953125 -0.234375q0.421875 -0.234375 0.625 -0.65625q0.15625 -0.3125 0.15625 -0.9375l0 -0.328125zm2.3796387 2.765625l0 -7.625l0.9375 0l0 7.625l-0.9375 0zm7.640625 0l-2.953125 -7.625l1.09375 0l1.984375 5.53125q0.234375 0.671875 0.390625 1.25q0.1875 -0.625 0.421875 -1.25l2.0625 -5.53125l1.03125 0l-3.0 7.625l-1.03125 0zm3.8784485 -2.765625q0 -1.53125 0.84375 -2.265625q0.71875 -0.625 1.734375 -0.625q1.140625 0 1.859375 0.75q0.734375 0.75 0.734375 2.0625q0 1.0625 -0.328125 1.6875q-0.3125 0.609375 -0.921875 0.953125q-0.609375 0.328125 -1.34375 0.328125q-1.15625 0 -1.875 -0.734375q-0.703125 -0.75 -0.703125 -2.15625zm0.953125 0q0 1.0625 0.46875 1.59375q0.46875 0.53125 1.15625 0.53125q0.703125 0 1.15625 -0.53125q0.46875 -0.53125 0.46875 -1.625q0 -1.015625 -0.46875 -1.546875q-0.453125 -0.53125 -1.15625 -0.53125q-0.6875 0 -1.15625 0.53125q-0.46875 0.515625 -0.46875 1.578125zm5.3015137 2.765625l0 -7.625l0.9375 0l0 7.625l-0.9375 0zm6.008087 0l0 -0.8125q-0.65625 0.9375 -1.75 0.9375q-0.5 0 -0.921875 -0.1875q-0.421875 -0.1875 -0.625 -0.46875q-0.203125 -0.28125 -0.296875 -0.703125q-0.046875 -0.265625 -0.046875 -0.875l0 -3.421875l0.9375 0l0 3.0625q0 0.734375 0.046875 1.0q0.09375 0.359375 0.375 0.578125q0.296875 0.203125 0.703125 0.203125q0.421875 0 0.796875 -0.203125q0.375 -0.21875 0.515625 -0.59375q0.15625 -0.375 0.15625 -1.078125l0 -2.96875l0.9375 0l0 5.53125l-0.828125 0zm2.3015137 0l0 -5.53125l0.84375 0l0 0.78125q0.25 -0.40625 0.6875 -0.65625q0.4375 -0.25 0.984375 -0.25q0.609375 0 1.0 0.265625q0.390625 0.25 0.5625 0.703125q0.65625 -0.96875 1.703125 -0.96875q0.828125 0 1.265625 0.46875q0.4375 0.453125 0.4375 1.390625l0 3.796875l-0.921875 0l0 -3.484375q0 -0.5625 -0.09375 -0.796875q-0.09375 -0.25 -0.34375 -0.40625q-0.234375 -0.15625 -0.546875 -0.15625q-0.59375 0 -0.984375 0.390625q-0.375 0.390625 -0.375 1.25l0 3.203125l-0.9375 0l0 -3.59375q0 -0.625 -0.234375 -0.9375q-0.21875 -0.3125 -0.75 -0.3125q-0.390625 0 -0.734375 0.21875q-0.328125 0.203125 -0.484375 0.609375q-0.140625 0.390625 -0.140625 1.15625l0 2.859375l-0.9375 0zm12.6579895 -1.78125l0.96875 0.125q-0.234375 0.84375 -0.859375 1.3125q-0.609375 0.46875 -1.578125 0.46875q-1.203125 0 -1.921875 -0.75q-0.703125 -0.75 -0.703125 -2.09375q0 -1.390625 0.71875 -2.15625q0.71875 -0.78125 1.859375 -0.78125q1.109375 0 1.8125 0.765625q0.703125 0.75 0.703125 2.125q0 0.078125 0 0.234375l-4.125 0q0.046875 0.921875 0.515625 1.40625q0.46875 0.484375 1.15625 0.484375q0.515625 0 0.875 -0.265625q0.359375 -0.28125 0.578125 -0.875zm-3.078125 -1.515625l3.09375 0q-0.0625 -0.6875 -0.359375 -1.046875q-0.453125 -0.53125 -1.15625 -0.53125q-0.640625 0 -1.09375 0.4375q-0.4375 0.421875 -0.484375 1.140625z" fill-rule="nonzero"/><path fill="#ffffff" d="m238.87848 130.7687l0 0c0 -4.276306 3.466629 -7.742935 7.742935 -7.742935l66.68736 0c2.0535583 0 4.0229797 0.8157654 5.475067 2.2678528c1.4520874 1.4520798 2.2678528 3.421524 2.2678528 5.4750824l0 30.970825c0 4.276291 -3.4666138 7.742935 -7.74292 7.742935l-66.68736 0c-4.276306 0 -7.742935 -3.4666443 -7.742935 -7.742935z" fill-rule="evenodd"/><path stroke="#000000" stroke-width="1.0" stroke-linejoin="round" stroke-linecap="butt" d="m238.87848 130.7687l0 0c0 -4.276306 3.466629 -7.742935 7.742935 -7.742935l66.68736 0c2.0535583 0 4.0229797 0.8157654 5.475067 2.2678528c1.4520874 1.4520798 2.2678528 3.421524 2.2678528 5.4750824l0 30.970825c0 4.276291 -3.4666138 7.742935 -7.74292 7.742935l-66.68736 0c-4.276306 0 -7.742935 -3.4666443 -7.742935 -7.742935z" fill-rule="evenodd"/><path fill="#000000" d="m274.62512 149.99411l0 -7.625l1.015625 0l0 6.71875l3.75 0l0 0.90625l-4.765625 0zm7.3535767 0l-2.953125 -7.625l1.09375 0l1.984375 5.53125q0.234375 0.671875 0.390625 1.25q0.1875 -0.625 0.421875 -1.25l2.0625 -5.53125l1.03125 0l-3.0 7.625l-1.03125 0z" fill-rule="nonzero"/><path fill="#ffffff" d="m321.60995 130.7687l0 0c0 -4.276306 3.4666443 -7.742935 7.7429504 -7.742935l66.68735 0c2.0535583 0 4.0230103 0.8157654 5.4750977 2.2678528c1.4520874 1.4520798 2.2678528 3.421524 2.2678528 5.4750824l0 30.970825c0 4.276291 -3.4666443 7.742935 -7.7429504 7.742935l-66.68735 0c-4.276306 0 -7.7429504 -3.4666443 -7.7429504 -7.742935z" fill-rule="evenodd"/><path stroke="#000000" stroke-width="1.0" stroke-linejoin="round" stroke-linecap="butt" d="m321.60995 130.7687l0 0c0 -4.276306 3.4666443 -7.742935 7.7429504 -7.742935l66.68735 0c2.0535583 0 4.0230103 0.8157654 5.4750977 2.2678528c1.4520874 1.4520798 2.2678528 3.421524 2.2678528 5.4750824l0 30.970825c0 4.276291 -3.4666443 7.742935 -7.7429504 7.742935l-66.68735 0c-4.276306 0 -7.7429504 -3.4666443 -7.7429504 -7.742935z" fill-rule="evenodd"/><path fill="#000000" d="m357.3566 149.99411l0 -7.625l1.015625 0l0 6.71875l3.75 0l0 0.90625l-4.765625 0zm7.3535767 0l-2.953125 -7.625l1.09375 0l1.984375 5.53125q0.234375 0.671875 0.390625 1.25q0.1875 -0.625 0.421875 -1.25l2.0625 -5.53125l1.03125 0l-3.0 7.625l-1.03125 0z" fill-rule="nonzero"/><path fill="#ffffff" d="m403.79675 130.7687l0 0c0 -4.276306 3.4666443 -7.742935 7.7429504 -7.742935l75.88422 0c2.0535583 0 4.0229797 0.8157654 5.475067 2.2678528c1.4520874 1.4520798 2.2678528 3.421524 2.2678528 5.4750824l0 30.970825c0 4.276291 -3.4666138 7.742935 -7.74292 7.742935l-75.88422 0c-4.276306 0 -7.7429504 -3.4666443 -7.7429504 -7.742935z" fill-rule="evenodd"/><path stroke="#000000" stroke-width="1.0" stroke-linejoin="round" stroke-linecap="butt" d="m403.79675 130.7687l0 0c0 -4.276306 3.4666443 -7.742935 7.7429504 -7.742935l75.88422 0c2.0535583 0 4.0229797 0.8157654 5.475067 2.2678528c1.4520874 1.4520798 2.2678528 3.421524 2.2678528 5.4750824l0 30.970825c0 4.276291 -3.4666138 7.742935 -7.74292 7.742935l-75.88422 0c-4.276306 0 -7.7429504 -3.4666443 -7.7429504 -7.742935z" fill-rule="evenodd"/><path fill="#000000" d="m430.81342 143.49411l0 -7.625l5.140625 0l0 0.890625l-4.125 0l0 2.375l3.578125 0l0 0.890625l-3.578125 0l0 3.46875l-1.015625 0zm6.321747 0l0 -5.53125l0.84375 0l0 0.84375q0.328125 -0.59375 0.59375 -0.78125q0.28125 -0.1875 0.609375 -0.1875q0.46875 0 0.953125 0.3125l-0.3125 0.859375q-0.34375 -0.203125 -0.6875 -0.203125q-0.3125 0 -0.5625 0.1875q-0.234375 0.1875 -0.34375 0.515625q-0.15625 0.5 -0.15625 1.09375l0 2.890625l-0.9375 0zm7.3454895 -1.78125l0.96875 0.125q-0.234375 0.84375 -0.859375 1.3125q-0.609375 0.46875 -1.578125 0.46875q-1.203125 0 -1.921875 -0.75q-0.703125 -0.75 -0.703125 -2.09375q0 -1.390625 0.71875 -2.15625q0.71875 -0.78125 1.859375 -0.78125q1.109375 0 1.8125 0.765625q0.703125 0.75 0.703125 2.125q0 0.078125 0 0.234375l-4.125 0q0.046875 0.921875 0.515625 1.40625q0.46875 0.484375 1.15625 0.484375q0.515625 0 0.875 -0.265625q0.359375 -0.28125 0.578125 -0.875zm-3.078125 -1.515625l3.09375 0q-0.0625 -0.6875 -0.359375 -1.046875q-0.453125 -0.53125 -1.15625 -0.53125q-0.640625 0 -1.09375 0.4375q-0.4375 0.421875 -0.484375 1.140625zm9.004639 1.515625l0.96875 0.125q-0.234375 0.84375 -0.859375 1.3125q-0.609375 0.46875 -1.578125 0.46875q-1.203125 0 -1.921875 -0.75q-0.703125 -0.75 -0.703125 -2.09375q0 -1.390625 0.71875 -2.15625q0.71875 -0.78125 1.859375 -0.78125q1.109375 0 1.8125 0.765625q0.703125 0.75 0.703125 2.125q0 0.078125 0 0.234375l-4.125 0q0.046875 0.921875 0.515625 1.40625q0.46875 0.484375 1.15625 0.484375q0.515625 0 0.875 -0.265625q0.359375 -0.28125 0.578125 -0.875zm-3.078125 -1.515625l3.09375 0q-0.0625 -0.6875 -0.359375 -1.046875q-0.453125 -0.53125 -1.15625 -0.53125q-0.640625 0 -1.09375 0.4375q-0.4375 0.421875 -0.484375 1.140625zm8.309021 3.296875l0 -7.625l2.875 0q0.75 0 1.15625 0.0625q0.5625 0.09375 0.9375 0.359375q0.390625 0.265625 0.609375 0.75q0.234375 0.46875 0.234375 1.03125q0 0.96875 -0.625 1.65625q-0.609375 0.671875 -2.234375 0.671875l-1.953125 0l0 3.09375l-1.0 0zm1.0 -4.0l1.96875 0q0.984375 0 1.390625 -0.359375q0.421875 -0.375 0.421875 -1.03125q0 -0.484375 -0.25 -0.8125q-0.234375 -0.34375 -0.640625 -0.453125q-0.25 -0.078125 -0.9375 -0.078125l-1.953125 0l0 2.734375zm6.1232605 4.0l0 -7.625l5.515625 0l0 0.890625l-4.5 0l0 2.34375l4.21875 0l0 0.890625l-4.21875 0l0 2.59375l4.671875 0l0 0.90625l-5.6875 0z" fill-rule="nonzero"/><path fill="#000000" d="m441.32556 158.74411q-0.78125 -0.984375 -1.328125 -2.296875q-0.53125 -1.3125 -0.53125 -2.71875q0 -1.234375 0.40625 -2.375q0.46875 -1.3125 1.453125 -2.625l0.65625 0q-0.625 1.09375 -0.828125 1.546875q-0.3125 0.71875 -0.5 1.5q-0.21875 0.984375 -0.21875 1.96875q0 2.5 1.546875 5.0l-0.65625 0zm5.0173645 -2.25l-0.9375 0l0 -5.96875q-0.34375 0.328125 -0.890625 0.65625q-0.546875 0.3125 -0.984375 0.46875l0 -0.90625q0.796875 -0.359375 1.375 -0.890625q0.59375 -0.53125 0.828125 -1.015625l0.609375 0l0 7.65625zm6.348358 -2.984375l0 -0.90625l3.234375 0l0 2.828125q-0.75 0.59375 -1.546875 0.890625q-0.78125 0.296875 -1.609375 0.296875q-1.125 0 -2.046875 -0.46875q-0.921875 -0.484375 -1.390625 -1.390625q-0.46875 -0.921875 -0.46875 -2.046875q0 -1.109375 0.46875 -2.078125q0.46875 -0.96875 1.34375 -1.4375q0.875 -0.46875 2.015625 -0.46875q0.828125 0 1.484375 0.28125q0.671875 0.265625 1.046875 0.75q0.390625 0.46875 0.59375 1.234375l-0.921875 0.25q-0.171875 -0.578125 -0.421875 -0.90625q-0.25 -0.34375 -0.734375 -0.53125q-0.46875 -0.203125 -1.046875 -0.203125q-0.6875 0 -1.203125 0.21875q-0.5 0.203125 -0.8125 0.546875q-0.296875 0.34375 -0.46875 0.75q-0.296875 0.703125 -0.296875 1.53125q0 1.03125 0.34375 1.71875q0.359375 0.671875 1.03125 1.015625q0.671875 0.328125 1.421875 0.328125q0.65625 0 1.28125 -0.25q0.625 -0.25 0.953125 -0.546875l0 -1.40625l-2.25 0zm5.210663 5.234375l-0.671875 0q1.5625 -2.5 1.5625 -5.0q0 -0.984375 -0.21875 -1.953125q-0.1875 -0.78125 -0.5 -1.5q-0.203125 -0.46875 -0.84375 -1.5625l0.671875 0q0.984375 1.3125 1.453125 2.625q0.390625 1.140625 0.390625 2.375q0 1.40625 -0.53125 2.71875q-0.53125 1.3125 -1.3125 2.296875z" fill-rule="nonzero"/><path fill="#000000" fill-opacity="0.0" d="m108.28609 276.23148l395.33856 0l0 111.3071l-395.33856 0z" fill-rule="evenodd"/><path stroke="#000000" stroke-width="4.0" stroke-linejoin="round" stroke-linecap="butt" d="m108.28609 276.23148l395.33856 0l0 111.3071l-395.33856 0z" fill-rule="evenodd"/><path fill="#ffffff" d="m108.28609 294.58435l0 0c0 -10.13559 8.216507 -18.352081 18.352074 -18.352081l176.08325 0c4.867279 0 9.535217 1.9335022 12.976898 5.375183c3.441681 3.441681 5.375183 8.109619 5.375183 12.976898l0 73.40607c0 10.13559 -8.216492 18.352081 -18.352081 18.352081l-176.08325 0c-10.135567 0 -18.352074 -8.216492 -18.352074 -18.352081z" fill-rule="evenodd"/><path stroke="#000000" stroke-width="1.0" stroke-linejoin="round" stroke-linecap="butt" d="m108.28609 294.58435l0 0c0 -10.13559 8.216507 -18.352081 18.352074 -18.352081l176.08325 0c4.867279 0 9.535217 1.9335022 12.976898 5.375183c3.441681 3.441681 5.375183 8.109619 5.375183 12.976898l0 73.40607c0 10.13559 -8.216492 18.352081 -18.352081 18.352081l-176.08325 0c-10.135567 0 -18.352074 -8.216492 -18.352074 -18.352081z" fill-rule="evenodd"/><path fill="#000000" d="m183.47408 335.02737l0 -7.625l2.859375 0q0.875 0 1.40625 0.234375q0.53125 0.21875 0.828125 0.703125q0.296875 0.484375 0.296875 1.015625q0 0.484375 -0.265625 0.921875q-0.265625 0.421875 -0.796875 0.6875q0.6875 0.203125 1.0625 0.703125q0.375 0.484375 0.375 1.140625q0 0.546875 -0.234375 1.015625q-0.21875 0.453125 -0.5625 0.703125q-0.328125 0.25 -0.828125 0.375q-0.5 0.125 -1.234375 0.125l-2.90625 0zm1.015625 -4.421875l1.640625 0q0.671875 0 0.96875 -0.09375q0.375 -0.109375 0.5625 -0.375q0.203125 -0.265625 0.203125 -0.671875q0 -0.375 -0.1875 -0.65625q-0.171875 -0.296875 -0.515625 -0.40625q-0.328125 -0.109375 -1.15625 -0.109375l-1.515625 0l0 2.3125zm0 3.515625l1.890625 0q0.484375 0 0.6875 -0.03125q0.34375 -0.0625 0.578125 -0.203125q0.234375 -0.15625 0.390625 -0.421875q0.15625 -0.28125 0.15625 -0.65625q0 -0.421875 -0.21875 -0.734375q-0.21875 -0.3125 -0.609375 -0.4375q-0.390625 -0.125 -1.125 -0.125l-1.75 0l0 2.609375zm5.6701355 -1.859375q0 -1.53125 0.84375 -2.265625q0.71875 -0.625 1.734375 -0.625q1.140625 0 1.859375 0.75q0.734375 0.75 0.734375 2.0625q0 1.0625 -0.328125 1.6875q-0.3125 0.609375 -0.921875 0.953125q-0.609375 0.328125 -1.34375 0.328125q-1.15625 0 -1.875 -0.734375q-0.703125 -0.75 -0.703125 -2.15625zm0.953125 0q0 1.0625 0.46875 1.59375q0.46875 0.53125 1.15625 0.53125q0.703125 0 1.15625 -0.53125q0.46875 -0.53125 0.46875 -1.625q0 -1.015625 -0.46875 -1.546875q-0.453125 -0.53125 -1.15625 -0.53125q-0.6875 0 -1.15625 0.53125q-0.46875 0.515625 -0.46875 1.578125zm4.9733734 0q0 -1.53125 0.84375 -2.265625q0.71875 -0.625 1.734375 -0.625q1.140625 0 1.859375 0.75q0.734375 0.75 0.734375 2.0625q0 1.0625 -0.328125 1.6875q-0.3125 0.609375 -0.921875 0.953125q-0.609375 0.328125 -1.34375 0.328125q-1.15625 0 -1.875 -0.734375q-0.703125 -0.75 -0.703125 -2.15625zm0.953125 0q0 1.0625 0.46875 1.59375q0.46875 0.53125 1.15625 0.53125q0.703125 0 1.15625 -0.53125q0.46875 -0.53125 0.46875 -1.625q0 -1.015625 -0.46875 -1.546875q-0.453125 -0.53125 -1.15625 -0.53125q-0.6875 0 -1.15625 0.53125q-0.46875 0.515625 -0.46875 1.578125zm7.3639984 1.921875l0.125 0.828125q-0.390625 0.09375 -0.703125 0.09375q-0.5 0 -0.78125 -0.15625q-0.28125 -0.171875 -0.40625 -0.4375q-0.109375 -0.265625 -0.109375 -1.109375l0 -3.171875l-0.6875 0l0 -0.734375l0.6875 0l0 -1.359375l0.9375 -0.5625l0 1.921875l0.9375 0l0 0.734375l-0.9375 0l0 3.234375q0 0.390625 0.046875 0.515625q0.046875 0.109375 0.15625 0.1875q0.109375 0.0625 0.328125 0.0625q0.15625 0 0.40625 -0.046875zm3.9994202 0.84375l0 -7.625l2.875 0q0.75 0 1.15625 0.0625q0.5625 0.09375 0.9375 0.359375q0.390625 0.265625 0.609375 0.75q0.234375 0.46875 0.234375 1.03125q0 0.96875 -0.625 1.65625q-0.609375 0.671875 -2.234375 0.671875l-1.953125 0l0 3.09375l-1.0 0zm1.0 -4.0l1.96875 0q0.984375 0 1.390625 -0.359375q0.421875 -0.375 0.421875 -1.03125q0 -0.484375 -0.25 -0.8125q-0.234375 -0.34375 -0.640625 -0.453125q-0.25 -0.078125 -0.9375 -0.078125l-1.953125 0l0 2.734375zm9.5920105 3.3125q-0.53125 0.453125 -1.015625 0.640625q-0.46875 0.171875 -1.015625 0.171875q-0.921875 0 -1.40625 -0.4375q-0.484375 -0.453125 -0.484375 -1.140625q0 -0.40625 0.171875 -0.734375q0.1875 -0.34375 0.484375 -0.546875q0.3125 -0.203125 0.6875 -0.3125q0.265625 -0.0625 0.828125 -0.140625q1.125 -0.125 1.671875 -0.3125q0 -0.203125 0 -0.25q0 -0.578125 -0.265625 -0.8125q-0.359375 -0.3125 -1.0625 -0.3125q-0.65625 0 -0.984375 0.234375q-0.3125 0.234375 -0.453125 0.8125l-0.921875 -0.125q0.125 -0.578125 0.40625 -0.9375q0.296875 -0.375 0.828125 -0.5625q0.546875 -0.203125 1.25 -0.203125q0.71875 0 1.15625 0.171875q0.4375 0.171875 0.640625 0.421875q0.21875 0.25 0.296875 0.640625q0.046875 0.234375 0.046875 0.859375l0 1.25q0 1.296875 0.0625 1.65625q0.0625 0.34375 0.234375 0.65625l-0.96875 0q-0.15625 -0.296875 -0.1875 -0.6875zm-0.078125 -2.078125q-0.515625 0.203125 -1.53125 0.34375q-0.578125 0.078125 -0.828125 0.1875q-0.234375 0.109375 -0.359375 0.3125q-0.125 0.1875 -0.125 0.4375q0 0.375 0.28125 0.625q0.28125 0.25 0.828125 0.25q0.53125 0 0.953125 -0.234375q0.421875 -0.234375 0.625 -0.65625q0.15625 -0.3125 0.15625 -0.9375l0 -0.328125zm2.3796234 2.765625l0 -5.53125l0.84375 0l0 0.84375q0.328125 -0.59375 0.59375 -0.78125q0.28125 -0.1875 0.609375 -0.1875q0.46875 0 0.953125 0.3125l-0.3125 0.859375q-0.34375 -0.203125 -0.6875 -0.203125q-0.3125 0 -0.5625 0.1875q-0.234375 0.1875 -0.34375 0.515625q-0.15625 0.5 -0.15625 1.09375l0 2.890625l-0.9375 0zm5.6111145 -0.84375l0.125 0.828125q-0.390625 0.09375 -0.703125 0.09375q-0.5 0 -0.78125 -0.15625q-0.28125 -0.171875 -0.40625 -0.4375q-0.109375 -0.265625 -0.109375 -1.109375l0 -3.171875l-0.6875 0l0 -0.734375l0.6875 0l0 -1.359375l0.9375 -0.5625l0 1.921875l0.9375 0l0 0.734375l-0.9375 0l0 3.234375q0 0.390625 0.046875 0.515625q0.046875 0.109375 0.15625 0.1875q0.109375 0.0625 0.328125 0.0625q0.15625 0 0.40625 -0.046875zm0.9137726 -5.703125l0 -1.078125l0.9375 0l0 1.078125l-0.9375 0zm0 6.546875l0 -5.53125l0.9375 0l0 5.53125l-0.9375 0zm4.4143524 -0.84375l0.125 0.828125q-0.390625 0.09375 -0.703125 0.09375q-0.5 0 -0.78125 -0.15625q-0.28125 -0.171875 -0.40625 -0.4375q-0.109375 -0.265625 -0.109375 -1.109375l0 -3.171875l-0.6875 0l0 -0.734375l0.6875 0l0 -1.359375l0.9375 -0.5625l0 1.921875l0.9375 0l0 0.734375l-0.9375 0l0 3.234375q0 0.390625 0.046875 0.515625q0.046875 0.109375 0.15625 0.1875q0.109375 0.0625 0.328125 0.0625q0.15625 0 0.40625 -0.046875zm0.9137726 -5.703125l0 -1.078125l0.9375 0l0 1.078125l-0.9375 0zm0 6.546875l0 -5.53125l0.9375 0l0 5.53125l-0.9375 0zm2.0237274 -2.765625q0 -1.53125 0.84375 -2.265625q0.71875 -0.625 1.734375 -0.625q1.140625 0 1.859375 0.75q0.734375 0.75 0.734375 2.0625q0 1.0625 -0.328125 1.6875q-0.3125 0.609375 -0.921875 0.953125q-0.609375 0.328125 -1.34375 0.328125q-1.15625 0 -1.875 -0.734375q-0.703125 -0.75 -0.703125 -2.15625zm0.953125 0q0 1.0625 0.46875 1.59375q0.46875 0.53125 1.15625 0.53125q0.703125 0 1.15625 -0.53125q0.46875 -0.53125 0.46875 -1.625q0 -1.015625 -0.46875 -1.546875q-0.453125 -0.53125 -1.15625 -0.53125q-0.6875 0 -1.15625 0.53125q-0.46875 0.515625 -0.46875 1.578125zm5.3171234 2.765625l0 -5.53125l0.84375 0l0 0.796875q0.609375 -0.921875 1.75 -0.921875q0.5 0 0.921875 0.1875q0.421875 0.171875 0.625 0.46875q0.21875 0.296875 0.296875 0.6875q0.046875 0.265625 0.046875 0.921875l0 3.390625l-0.9375 0l0 -3.359375q0 -0.578125 -0.109375 -0.859375q-0.109375 -0.28125 -0.390625 -0.453125q-0.265625 -0.171875 -0.640625 -0.171875q-0.59375 0 -1.03125 0.390625q-0.4375 0.375 -0.4375 1.4375l0 3.015625l-0.9375 0z" fill-rule="nonzero"/><path fill="#ffffff" d="m321.0654 294.7838l0 0c0 -10.245728 8.305817 -18.551544 18.551544 -18.551544l145.88904 0c4.920166 0 9.638824 1.9545288 13.11792 5.4336243c3.4790955 3.4790955 5.4336243 8.197754 5.4336243 13.11792l0 74.20398c0 10.245758 -8.305817 18.551544 -18.551544 18.551544l-145.88904 0c-10.245728 0 -18.551544 -8.305786 -18.551544 -18.551544z" fill-rule="evenodd"/><path stroke="#000000" stroke-width="1.0" stroke-linejoin="round" stroke-linecap="butt" d="m321.0654 294.7838l0 0c0 -10.245728 8.305817 -18.551544 18.551544 -18.551544l145.88904 0c4.920166 0 9.638824 1.9545288 13.11792 5.4336243c3.4790955 3.4790955 5.4336243 8.197754 5.4336243 13.11792l0 74.20398c0 10.245758 -8.305817 18.551544 -18.551544 18.551544l-145.88904 0c-10.245728 0 -18.551544 -8.305786 -18.551544 -18.551544z" fill-rule="evenodd"/><path fill="#ffffff" d="m322.2695 310.27158l0 0c0 -8.404755 6.8134155 -15.21817 15.21817 -15.21817l148.96527 0c4.0361023 0 7.906891 1.6033325 10.760864 4.457306c2.8539429 2.8539429 4.4572754 6.724762 4.4572754 10.760864l0 60.87079c0 8.404755 -6.813385 15.21814 -15.21814 15.21814l-148.96527 0c-8.404755 0 -15.21817 -6.813385 -15.21817 -15.21814z" fill-rule="evenodd"/><path stroke="#000000" stroke-width="1.0" stroke-linejoin="round" stroke-linecap="butt" d="m322.2695 310.27158l0 0c0 -8.404755 6.8134155 -15.21817 15.21817 -15.21817l148.96527 0c4.0361023 0 7.906891 1.6033325 10.760864 4.457306c2.8539429 2.8539429 4.4572754 6.724762 4.4572754 10.760864l0 60.87079c0 8.404755 -6.813385 15.21814 -15.21814 15.21814l-148.96527 0c-8.404755 0 -15.21817 -6.813385 -15.21817 -15.21814z" fill-rule="evenodd"/><path fill="#000000" fill-opacity="0.0" d="m354.26196 270.89526l126.58267 0l0 32.31494l-126.58267 0z" fill-rule="evenodd"/><path fill="#000000" d="m364.1057 290.13525l0 -7.625l5.515625 0l0 0.890625l-4.5 0l0 2.34375l4.21875 0l0 0.890625l-4.21875 0l0 2.59375l4.671875 0l0 0.90625l-5.6875 0zm6.3420105 0l2.015625 -2.875l-1.859375 -2.65625l1.171875 0l0.84375 1.296875q0.234375 0.375 0.390625 0.625q0.21875 -0.34375 0.40625 -0.609375l0.9375 -1.3125l1.125 0l-1.921875 2.609375l2.0625 2.921875l-1.15625 0l-1.125 -1.71875l-0.296875 -0.46875l-1.453125 2.1875l-1.140625 0zm8.0 -0.84375l0.125 0.828125q-0.390625 0.09375 -0.703125 0.09375q-0.5 0 -0.78125 -0.15625q-0.28125 -0.171875 -0.40625 -0.4375q-0.109375 -0.265625 -0.109375 -1.109375l0 -3.171875l-0.6875 0l0 -0.734375l0.6875 0l0 -1.359375l0.9375 -0.5625l0 1.921875l0.9375 0l0 0.734375l-0.9375 0l0 3.234375q0 0.390625 0.046875 0.515625q0.046875 0.109375 0.15625 0.1875q0.109375 0.0625 0.328125 0.0625q0.15625 0 0.40625 -0.046875zm4.6950073 -0.9375l0.96875 0.125q-0.234375 0.84375 -0.859375 1.3125q-0.609375 0.46875 -1.578125 0.46875q-1.203125 0 -1.921875 -0.75q-0.703125 -0.75 -0.703125 -2.09375q0 -1.390625 0.71875 -2.15625q0.71875 -0.78125 1.859375 -0.78125q1.109375 0 1.8125 0.765625q0.703125 0.75 0.703125 2.125q0 0.078125 0 0.234375l-4.125 0q0.046875 0.921875 0.515625 1.40625q0.46875 0.484375 1.15625 0.484375q0.515625 0 0.875 -0.265625q0.359375 -0.28125 0.578125 -0.875zm-3.078125 -1.515625l3.09375 0q-0.0625 -0.6875 -0.359375 -1.046875q-0.453125 -0.53125 -1.15625 -0.53125q-0.640625 0 -1.09375 0.4375q-0.4375 0.421875 -0.484375 1.140625zm5.2233887 3.296875l0 -5.53125l0.84375 0l0 0.796875q0.609375 -0.921875 1.75 -0.921875q0.5 0 0.921875 0.1875q0.421875 0.171875 0.625 0.46875q0.21875 0.296875 0.296875 0.6875q0.046875 0.265625 0.046875 0.921875l0 3.390625l-0.9375 0l0 -3.359375q0 -0.578125 -0.109375 -0.859375q-0.109375 -0.28125 -0.390625 -0.453125q-0.265625 -0.171875 -0.640625 -0.171875q-0.59375 0 -1.03125 0.390625q-0.4375 0.375 -0.4375 1.4375l0 3.015625l-0.9375 0zm9.504608 0l0 -0.703125q-0.515625 0.828125 -1.546875 0.828125q-0.65625 0 -1.21875 -0.359375q-0.546875 -0.375 -0.859375 -1.015625q-0.296875 -0.65625 -0.296875 -1.5q0 -0.828125 0.28125 -1.5q0.28125 -0.6875 0.828125 -1.046875q0.546875 -0.359375 1.234375 -0.359375q0.5 0 0.890625 0.21875q0.390625 0.203125 0.625 0.546875l0 -2.734375l0.9375 0l0 7.625l-0.875 0zm-2.953125 -2.75q0 1.046875 0.4375 1.578125q0.453125 0.53125 1.0625 0.53125q0.609375 0 1.03125 -0.5q0.4375 -0.515625 0.4375 -1.53125q0 -1.140625 -0.4375 -1.671875q-0.4375 -0.53125 -1.078125 -0.53125q-0.609375 0 -1.03125 0.515625q-0.421875 0.5 -0.421875 1.609375zm9.082764 0.96875l0.96875 0.125q-0.234375 0.84375 -0.859375 1.3125q-0.609375 0.46875 -1.578125 0.46875q-1.203125 0 -1.921875 -0.75q-0.703125 -0.75 -0.703125 -2.09375q0 -1.390625 0.71875 -2.15625q0.71875 -0.78125 1.859375 -0.78125q1.109375 0 1.8125 0.765625q0.703125 0.75 0.703125 2.125q0 0.078125 0 0.234375l-4.125 0q0.046875 0.921875 0.515625 1.40625q0.46875 0.484375 1.15625 0.484375q0.515625 0 0.875 -0.265625q0.359375 -0.28125 0.578125 -0.875zm-3.078125 -1.515625l3.09375 0q-0.0625 -0.6875 -0.359375 -1.046875q-0.453125 -0.53125 -1.15625 -0.53125q-0.640625 0 -1.09375 0.4375q-0.4375 0.421875 -0.484375 1.140625zm8.801483 3.296875l0 -0.703125q-0.515625 0.828125 -1.546875 0.828125q-0.65625 0 -1.21875 -0.359375q-0.546875 -0.375 -0.859375 -1.015625q-0.296875 -0.65625 -0.296875 -1.5q0 -0.828125 0.28125 -1.5q0.28125 -0.6875 0.828125 -1.046875q0.546875 -0.359375 1.234375 -0.359375q0.5 0 0.890625 0.21875q0.390625 0.203125 0.625 0.546875l0 -2.734375l0.9375 0l0 7.625l-0.875 0zm-2.953125 -2.75q0 1.046875 0.4375 1.578125q0.453125 0.53125 1.0625 0.53125q0.609375 0 1.03125 -0.5q0.4375 -0.515625 0.4375 -1.53125q0 -1.140625 -0.4375 -1.671875q-0.4375 -0.53125 -1.078125 -0.53125q-0.609375 0 -1.03125 0.515625q-0.421875 0.5 -0.421875 1.609375zm8.387146 2.75l0 -7.625l2.875 0q0.75 0 1.15625 0.0625q0.5625 0.09375 0.9375 0.359375q0.390625 0.265625 0.609375 0.75q0.234375 0.46875 0.234375 1.03125q0 0.96875 -0.625 1.65625q-0.609375 0.671875 -2.234375 0.671875l-1.953125 0l0 3.09375l-1.0 0zm1.0 -4.0l1.96875 0q0.984375 0 1.390625 -0.359375q0.421875 -0.375 0.421875 -1.03125q0 -0.484375 -0.25 -0.8125q-0.234375 -0.34375 -0.640625 -0.453125q-0.25 -0.078125 -0.9375 -0.078125l-1.953125 0l0 2.734375zm9.5920105 3.3125q-0.53125 0.453125 -1.015625 0.640625q-0.46875 0.171875 -1.015625 0.171875q-0.921875 0 -1.40625 -0.4375q-0.484375 -0.453125 -0.484375 -1.140625q0 -0.40625 0.171875 -0.734375q0.1875 -0.34375 0.484375 -0.546875q0.3125 -0.203125 0.6875 -0.3125q0.265625 -0.0625 0.828125 -0.140625q1.125 -0.125 1.671875 -0.3125q0 -0.203125 0 -0.25q0 -0.578125 -0.265625 -0.8125q-0.359375 -0.3125 -1.0625 -0.3125q-0.65625 0 -0.984375 0.234375q-0.3125 0.234375 -0.453125 0.8125l-0.921875 -0.125q0.125 -0.578125 0.40625 -0.9375q0.296875 -0.375 0.828125 -0.5625q0.546875 -0.203125 1.25 -0.203125q0.71875 0 1.15625 0.171875q0.4375 0.171875 0.640625 0.421875q0.21875 0.25 0.296875 0.640625q0.046875 0.234375 0.046875 0.859375l0 1.25q0 1.296875 0.0625 1.65625q0.0625 0.34375 0.234375 0.65625l-0.96875 0q-0.15625 -0.296875 -0.1875 -0.6875zm-0.078125 -2.078125q-0.515625 0.203125 -1.53125 0.34375q-0.578125 0.078125 -0.828125 0.1875q-0.234375 0.109375 -0.359375 0.3125q-0.125 0.1875 -0.125 0.4375q0 0.375 0.28125 0.625q0.28125 0.25 0.828125 0.25q0.53125 0 0.953125 -0.234375q0.421875 -0.234375 0.625 -0.65625q0.15625 -0.3125 0.15625 -0.9375l0 -0.328125zm2.3796387 2.765625l0 -5.53125l0.84375 0l0 0.84375q0.328125 -0.59375 0.59375 -0.78125q0.28125 -0.1875 0.609375 -0.1875q0.46875 0 0.953125 0.3125l-0.3125 0.859375q-0.34375 -0.203125 -0.6875 -0.203125q-0.3125 0 -0.5625 0.1875q-0.234375 0.1875 -0.34375 0.515625q-0.15625 0.5 -0.15625 1.09375l0 2.890625l-0.9375 0zm5.6111145 -0.84375l0.125 0.828125q-0.390625 0.09375 -0.703125 0.09375q-0.5 0 -0.78125 -0.15625q-0.28125 -0.171875 -0.40625 -0.4375q-0.109375 -0.265625 -0.109375 -1.109375l0 -3.171875l-0.6875 0l0 -0.734375l0.6875 0l0 -1.359375l0.9375 -0.5625l0 1.921875l0.9375 0l0 0.734375l-0.9375 0l0 3.234375q0 0.390625 0.046875 0.515625q0.046875 0.109375 0.15625 0.1875q0.109375 0.0625 0.328125 0.0625q0.15625 0 0.40625 -0.046875zm0.9137573 -5.703125l0 -1.078125l0.9375 0l0 1.078125l-0.9375 0zm0 6.546875l0 -5.53125l0.9375 0l0 5.53125l-0.9375 0zm4.4143677 -0.84375l0.125 0.828125q-0.390625 0.09375 -0.703125 0.09375q-0.5 0 -0.78125 -0.15625q-0.28125 -0.171875 -0.40625 -0.4375q-0.109375 -0.265625 -0.109375 -1.109375l0 -3.171875l-0.6875 0l0 -0.734375l0.6875 0l0 -1.359375l0.9375 -0.5625l0 1.921875l0.9375 0l0 0.734375l-0.9375 0l0 3.234375q0 0.390625 0.046875 0.515625q0.046875 0.109375 0.15625 0.1875q0.109375 0.0625 0.328125 0.0625q0.15625 0 0.40625 -0.046875zm0.9137573 -5.703125l0 -1.078125l0.9375 0l0 1.078125l-0.9375 0zm0 6.546875l0 -5.53125l0.9375 0l0 5.53125l-0.9375 0zm2.0237427 -2.765625q0 -1.53125 0.84375 -2.265625q0.71875 -0.625 1.734375 -0.625q1.140625 0 1.859375 0.75q0.734375 0.75 0.734375 2.0625q0 1.0625 -0.328125 1.6875q-0.3125 0.609375 -0.921875 0.953125q-0.609375 0.328125 -1.34375 0.328125q-1.15625 0 -1.875 -0.734375q-0.703125 -0.75 -0.703125 -2.15625zm0.953125 0q0 1.0625 0.46875 1.59375q0.46875 0.53125 1.15625 0.53125q0.703125 0 1.15625 -0.53125q0.46875 -0.53125 0.46875 -1.625q0 -1.015625 -0.46875 -1.546875q-0.453125 -0.53125 -1.15625 -0.53125q-0.6875 0 -1.15625 0.53125q-0.46875 0.515625 -0.46875 1.578125zm5.317108 2.765625l0 -5.53125l0.84375 0l0 0.796875q0.609375 -0.921875 1.75 -0.921875q0.5 0 0.921875 0.1875q0.421875 0.171875 0.625 0.46875q0.21875 0.296875 0.296875 0.6875q0.046875 0.265625 0.046875 0.921875l0 3.390625l-0.9375 0l0 -3.359375q0 -0.578125 -0.109375 -0.859375q-0.109375 -0.28125 -0.390625 -0.453125q-0.265625 -0.171875 -0.640625 -0.171875q-0.59375 0 -1.03125 0.390625q-0.4375 0.375 -0.4375 1.4375l0 3.015625l-0.9375 0z" fill-rule="nonzero"/><path fill="#000000" fill-opacity="0.0" d="m355.5232 289.548l126.58267 0l0 32.314972l-126.58267 0z" fill-rule="evenodd"/><path fill="#000000" d="m365.30444 308.788l0 -7.625l1.015625 0l0 6.71875l3.75 0l0 0.90625l-4.765625 0zm5.5046387 -2.765625q0 -1.53125 0.84375 -2.265625q0.71875 -0.625 1.734375 -0.625q1.140625 0 1.859375 0.75q0.734375 0.75 0.734375 2.0625q0 1.0625 -0.328125 1.6875q-0.3125 0.609375 -0.921875 0.953125q-0.609375 0.328125 -1.34375 0.328125q-1.15625 0 -1.875 -0.734375q-0.703125 -0.75 -0.703125 -2.15625zm0.953125 0q0 1.0625 0.46875 1.59375q0.46875 0.53125 1.15625 0.53125q0.703125 0 1.15625 -0.53125q0.46875 -0.53125 0.46875 -1.625q0 -1.015625 -0.46875 -1.546875q-0.453125 -0.53125 -1.15625 -0.53125q-0.6875 0 -1.15625 0.53125q-0.46875 0.515625 -0.46875 1.578125zm5.145233 3.21875l0.90625 0.140625q0.0625 0.421875 0.328125 0.609375q0.34375 0.265625 0.9375 0.265625q0.65625 0 1.0 -0.265625q0.359375 -0.25 0.484375 -0.71875q0.078125 -0.296875 0.078125 -1.203125q-0.625 0.71875 -1.53125 0.71875q-1.140625 0 -1.765625 -0.8125q-0.625 -0.828125 -0.625 -1.984375q0 -0.78125 0.28125 -1.453125q0.296875 -0.671875 0.828125 -1.03125q0.546875 -0.375 1.28125 -0.375q0.984375 0 1.609375 0.796875l0 -0.671875l0.875 0l0 4.78125q0 1.296875 -0.265625 1.828125q-0.265625 0.546875 -0.84375 0.859375q-0.5625 0.3125 -1.390625 0.3125q-0.984375 0 -1.59375 -0.453125q-0.609375 -0.4375 -0.59375 -1.34375zm0.78125 -3.3125q0 1.078125 0.421875 1.578125q0.4375 0.5 1.078125 0.5q0.65625 0 1.09375 -0.484375q0.4375 -0.5 0.4375 -1.5625q0 -1.015625 -0.453125 -1.53125q-0.453125 -0.515625 -1.09375 -0.515625q-0.609375 0 -1.046875 0.515625q-0.4375 0.5 -0.4375 1.5zm5.3171387 -3.6875l0 -1.078125l0.9375 0l0 1.078125l-0.9375 0zm0 6.546875l0 -5.53125l0.9375 0l0 5.53125l-0.9375 0zm5.976837 -2.03125l0.921875 0.125q-0.15625 0.953125 -0.78125 1.5q-0.625 0.53125 -1.53125 0.53125q-1.125 0 -1.8125 -0.734375q-0.6875 -0.75 -0.6875 -2.125q0 -0.90625 0.296875 -1.578125q0.296875 -0.671875 0.890625 -1.0q0.609375 -0.34375 1.328125 -0.34375q0.890625 0 1.46875 0.46875q0.578125 0.453125 0.734375 1.28125l-0.90625 0.140625q-0.140625 -0.546875 -0.46875 -0.828125q-0.328125 -0.28125 -0.796875 -0.28125q-0.703125 0 -1.15625 0.515625q-0.4375 0.5 -0.4375 1.59375q0 1.109375 0.421875 1.625q0.4375 0.5 1.125 0.5q0.546875 0 0.90625 -0.34375q0.375 -0.34375 0.484375 -1.046875zm5.328125 1.34375q-0.53125 0.453125 -1.015625 0.640625q-0.46875 0.171875 -1.015625 0.171875q-0.921875 0 -1.40625 -0.4375q-0.484375 -0.453125 -0.484375 -1.140625q0 -0.40625 0.171875 -0.734375q0.1875 -0.34375 0.484375 -0.546875q0.3125 -0.203125 0.6875 -0.3125q0.265625 -0.0625 0.828125 -0.140625q1.125 -0.125 1.671875 -0.3125q0 -0.203125 0 -0.25q0 -0.578125 -0.265625 -0.8125q-0.359375 -0.3125 -1.0625 -0.3125q-0.65625 0 -0.984375 0.234375q-0.3125 0.234375 -0.453125 0.8125l-0.921875 -0.125q0.125 -0.578125 0.40625 -0.9375q0.296875 -0.375 0.828125 -0.5625q0.546875 -0.203125 1.25 -0.203125q0.71875 0 1.15625 0.171875q0.4375 0.171875 0.640625 0.421875q0.21875 0.25 0.296875 0.640625q0.046875 0.234375 0.046875 0.859375l0 1.25q0 1.296875 0.0625 1.65625q0.0625 0.34375 0.234375 0.65625l-0.96875 0q-0.15625 -0.296875 -0.1875 -0.6875zm-0.078125 -2.078125q-0.515625 0.203125 -1.53125 0.34375q-0.578125 0.078125 -0.828125 0.1875q-0.234375 0.109375 -0.359375 0.3125q-0.125 0.1875 -0.125 0.4375q0 0.375 0.28125 0.625q0.28125 0.25 0.828125 0.25q0.53125 0 0.953125 -0.234375q0.421875 -0.234375 0.625 -0.65625q0.15625 -0.3125 0.15625 -0.9375l0 -0.328125zm2.3796387 2.765625l0 -7.625l0.9375 0l0 7.625l-0.9375 0zm5.46875 0l0 -7.625l2.875 0q0.75 0 1.15625 0.0625q0.5625 0.09375 0.9375 0.359375q0.390625 0.265625 0.609375 0.75q0.234375 0.46875 0.234375 1.03125q0 0.96875 -0.625 1.65625q-0.609375 0.671875 -2.234375 0.671875l-1.953125 0l0 3.09375l-1.0 0zm1.0 -4.0l1.96875 0q0.984375 0 1.390625 -0.359375q0.421875 -0.375 0.421875 -1.03125q0 -0.484375 -0.25 -0.8125q-0.234375 -0.34375 -0.640625 -0.453125q-0.25 -0.078125 -0.9375 -0.078125l-1.953125 0l0 2.734375zm9.5920105 3.3125q-0.53125 0.453125 -1.015625 0.640625q-0.46875 0.171875 -1.015625 0.171875q-0.921875 0 -1.40625 -0.4375q-0.484375 -0.453125 -0.484375 -1.140625q0 -0.40625 0.171875 -0.734375q0.1875 -0.34375 0.484375 -0.546875q0.3125 -0.203125 0.6875 -0.3125q0.265625 -0.0625 0.828125 -0.140625q1.125 -0.125 1.671875 -0.3125q0 -0.203125 0 -0.25q0 -0.578125 -0.265625 -0.8125q-0.359375 -0.3125 -1.0625 -0.3125q-0.65625 0 -0.984375 0.234375q-0.3125 0.234375 -0.453125 0.8125l-0.921875 -0.125q0.125 -0.578125 0.40625 -0.9375q0.296875 -0.375 0.828125 -0.5625q0.546875 -0.203125 1.25 -0.203125q0.71875 0 1.15625 0.171875q0.4375 0.171875 0.640625 0.421875q0.21875 0.25 0.296875 0.640625q0.046875 0.234375 0.046875 0.859375l0 1.25q0 1.296875 0.0625 1.65625q0.0625 0.34375 0.234375 0.65625l-0.96875 0q-0.15625 -0.296875 -0.1875 -0.6875zm-0.078125 -2.078125q-0.515625 0.203125 -1.53125 0.34375q-0.578125 0.078125 -0.828125 0.1875q-0.234375 0.109375 -0.359375 0.3125q-0.125 0.1875 -0.125 0.4375q0 0.375 0.28125 0.625q0.28125 0.25 0.828125 0.25q0.53125 0 0.953125 -0.234375q0.421875 -0.234375 0.625 -0.65625q0.15625 -0.3125 0.15625 -0.9375l0 -0.328125zm2.3796082 2.765625l0 -5.53125l0.84375 0l0 0.84375q0.328125 -0.59375 0.59375 -0.78125q0.28125 -0.1875 0.609375 -0.1875q0.46875 0 0.953125 0.3125l-0.3125 0.859375q-0.34375 -0.203125 -0.6875 -0.203125q-0.3125 0 -0.5625 0.1875q-0.234375 0.1875 -0.34375 0.515625q-0.15625 0.5 -0.15625 1.09375l0 2.890625l-0.9375 0zm5.6111145 -0.84375l0.125 0.828125q-0.390625 0.09375 -0.703125 0.09375q-0.5 0 -0.78125 -0.15625q-0.28125 -0.171875 -0.40625 -0.4375q-0.109375 -0.265625 -0.109375 -1.109375l0 -3.171875l-0.6875 0l0 -0.734375l0.6875 0l0 -1.359375l0.9375 -0.5625l0 1.921875l0.9375 0l0 0.734375l-0.9375 0l0 3.234375q0 0.390625 0.046875 0.515625q0.046875 0.109375 0.15625 0.1875q0.109375 0.0625 0.328125 0.0625q0.15625 0 0.40625 -0.046875zm0.91378784 -5.703125l0 -1.078125l0.9375 0l0 1.078125l-0.9375 0zm0 6.546875l0 -5.53125l0.9375 0l0 5.53125l-0.9375 0zm4.414337 -0.84375l0.125 0.828125q-0.390625 0.09375 -0.703125 0.09375q-0.5 0 -0.78125 -0.15625q-0.28125 -0.171875 -0.40625 -0.4375q-0.109375 -0.265625 -0.109375 -1.109375l0 -3.171875l-0.6875 0l0 -0.734375l0.6875 0l0 -1.359375l0.9375 -0.5625l0 1.921875l0.9375 0l0 0.734375l-0.9375 0l0 3.234375q0 0.390625 0.046875 0.515625q0.046875 0.109375 0.15625 0.1875q0.109375 0.0625 0.328125 0.0625q0.15625 0 0.40625 -0.046875zm0.91378784 -5.703125l0 -1.078125l0.9375 0l0 1.078125l-0.9375 0zm0 6.546875l0 -5.53125l0.9375 0l0 5.53125l-0.9375 0zm2.0237122 -2.765625q0 -1.53125 0.84375 -2.265625q0.71875 -0.625 1.734375 -0.625q1.140625 0 1.859375 0.75q0.734375 0.75 0.734375 2.0625q0 1.0625 -0.328125 1.6875q-0.3125 0.609375 -0.921875 0.953125q-0.609375 0.328125 -1.34375 0.328125q-1.15625 0 -1.875 -0.734375q-0.703125 -0.75 -0.703125 -2.15625zm0.953125 0q0 1.0625 0.46875 1.59375q0.46875 0.53125 1.15625 0.53125q0.703125 0 1.15625 -0.53125q0.46875 -0.53125 0.46875 -1.625q0 -1.015625 -0.46875 -1.546875q-0.453125 -0.53125 -1.15625 -0.53125q-0.6875 0 -1.15625 0.53125q-0.46875 0.515625 -0.46875 1.578125zm5.3171387 2.765625l0 -5.53125l0.84375 0l0 0.796875q0.609375 -0.921875 1.75 -0.921875q0.5 0 0.921875 0.1875q0.421875 0.171875 0.625 0.46875q0.21875 0.296875 0.296875 0.6875q0.046875 0.265625 0.046875 0.921875l0 3.390625l-0.9375 0l0 -3.359375q0 -0.578125 -0.109375 -0.859375q-0.109375 -0.28125 -0.390625 -0.453125q-0.265625 -0.171875 -0.640625 -0.171875q-0.59375 0 -1.03125 0.390625q-0.4375 0.375 -0.4375 1.4375l0 3.015625l-0.9375 0z" fill-rule="nonzero"/><path fill="#ffffff" d="m323.84726 326.35336l0 0c0 -6.450714 5.2293396 -11.680023 11.680023 -11.680023l152.67145 0c3.0977478 0 6.0686035 1.2305603 8.259033 3.42099c2.1904297 2.1904297 3.42099 5.1612854 3.42099 8.259033l0 46.71869c0 6.4506836 -5.229309 11.680023 -11.680023 11.680023l-152.67145 0l0 0c-6.4506836 0 -11.680023 -5.2293396 -11.680023 -11.680023z" fill-rule="evenodd"/><path stroke="#000000" stroke-width="1.0" stroke-linejoin="round" stroke-linecap="butt" d="m323.84726 326.35336l0 0c0 -6.450714 5.2293396 -11.680023 11.680023 -11.680023l152.67145 0c3.0977478 0 6.0686035 1.2305603 8.259033 3.42099c2.1904297 2.1904297 3.42099 5.1612854 3.42099 8.259033l0 46.71869c0 6.4506836 -5.229309 11.680023 -11.680023 11.680023l-152.67145 0l0 0c-6.4506836 0 -11.680023 -5.2293396 -11.680023 -11.680023z" fill-rule="evenodd"/><path fill="#000000" fill-opacity="0.0" d="m355.5232 310.87265l112.1575 0l0 32.31494l-112.1575 0z" fill-rule="evenodd"/><path fill="#000000" d="m365.35132 330.11264l0 -7.625l2.875 0q0.75 0 1.15625 0.0625q0.5625 0.09375 0.9375 0.359375q0.390625 0.265625 0.609375 0.75q0.234375 0.46875 0.234375 1.03125q0 0.96875 -0.625 1.65625q-0.609375 0.671875 -2.234375 0.671875l-1.953125 0l0 3.09375l-1.0 0zm1.0 -4.0l1.96875 0q0.984375 0 1.390625 -0.359375q0.421875 -0.375 0.421875 -1.03125q0 -0.484375 -0.25 -0.8125q-0.234375 -0.34375 -0.640625 -0.453125q-0.25 -0.078125 -0.9375 -0.078125l-1.953125 0l0 2.734375zm5.9826355 4.0l0 -7.625l0.9375 0l0 2.734375q0.65625 -0.765625 1.65625 -0.765625q0.609375 0 1.0625 0.25q0.453125 0.234375 0.640625 0.671875q0.203125 0.421875 0.203125 1.234375l0 3.5l-0.9375 0l0 -3.5q0 -0.703125 -0.3125 -1.015625q-0.296875 -0.328125 -0.859375 -0.328125q-0.40625 0 -0.78125 0.21875q-0.359375 0.21875 -0.515625 0.59375q-0.15625 0.359375 -0.15625 1.015625l0 3.015625l-0.9375 0zm5.8796387 2.125l-0.09375 -0.875q0.296875 0.078125 0.53125 0.078125q0.3125 0 0.5 -0.109375q0.1875 -0.09375 0.3125 -0.28125q0.078125 -0.140625 0.28125 -0.703125q0.03125 -0.078125 0.078125 -0.21875l-2.09375 -5.546875l1.015625 0l1.140625 3.203125q0.234375 0.609375 0.40625 1.28125q0.15625 -0.640625 0.375 -1.265625l1.1875 -3.21875l0.9375 0l-2.109375 5.625q-0.328125 0.90625 -0.515625 1.25q-0.25 0.46875 -0.578125 0.6875q-0.3125 0.21875 -0.765625 0.21875q-0.265625 0 -0.609375 -0.125zm5.0 -3.78125l0.921875 -0.140625q0.078125 0.5625 0.4375 0.859375q0.359375 0.296875 1.0 0.296875q0.640625 0 0.953125 -0.265625q0.3125 -0.265625 0.3125 -0.625q0 -0.3125 -0.28125 -0.5q-0.1875 -0.125 -0.953125 -0.3125q-1.03125 -0.265625 -1.4375 -0.453125q-0.390625 -0.1875 -0.59375 -0.515625q-0.203125 -0.34375 -0.203125 -0.75q0 -0.359375 0.171875 -0.671875q0.171875 -0.328125 0.453125 -0.53125q0.21875 -0.15625 0.59375 -0.265625q0.390625 -0.125 0.8125 -0.125q0.65625 0 1.140625 0.1875q0.5 0.1875 0.734375 0.515625q0.234375 0.3125 0.3125 0.859375l-0.90625 0.125q-0.0625 -0.4375 -0.375 -0.671875q-0.296875 -0.234375 -0.828125 -0.234375q-0.65625 0 -0.9375 0.21875q-0.265625 0.203125 -0.265625 0.484375q0 0.1875 0.109375 0.328125q0.125 0.15625 0.359375 0.25q0.140625 0.0625 0.828125 0.25q1.0 0.265625 1.390625 0.4375q0.390625 0.15625 0.609375 0.484375q0.234375 0.3125 0.234375 0.796875q0 0.46875 -0.28125 0.890625q-0.265625 0.40625 -0.78125 0.640625q-0.515625 0.21875 -1.171875 0.21875q-1.078125 0 -1.640625 -0.4375q-0.5625 -0.453125 -0.71875 -1.34375zm5.703125 -4.890625l0 -1.078125l0.9375 0l0 1.078125l-0.9375 0zm0 6.546875l0 -5.53125l0.9375 0l0 5.53125l-0.9375 0zm5.976837 -2.03125l0.921875 0.125q-0.15625 0.953125 -0.78125 1.5q-0.625 0.53125 -1.53125 0.53125q-1.125 0 -1.8125 -0.734375q-0.6875 -0.75 -0.6875 -2.125q0 -0.90625 0.296875 -1.578125q0.296875 -0.671875 0.890625 -1.0q0.609375 -0.34375 1.328125 -0.34375q0.890625 0 1.46875 0.46875q0.578125 0.453125 0.734375 1.28125l-0.90625 0.140625q-0.140625 -0.546875 -0.46875 -0.828125q-0.328125 -0.28125 -0.796875 -0.28125q-0.703125 0 -1.15625 0.515625q-0.4375 0.5 -0.4375 1.59375q0 1.109375 0.421875 1.625q0.4375 0.5 1.125 0.5q0.546875 0 0.90625 -0.34375q0.375 -0.34375 0.484375 -1.046875zm5.328125 1.34375q-0.53125 0.453125 -1.015625 0.640625q-0.46875 0.171875 -1.015625 0.171875q-0.921875 0 -1.40625 -0.4375q-0.484375 -0.453125 -0.484375 -1.140625q0 -0.40625 0.171875 -0.734375q0.1875 -0.34375 0.484375 -0.546875q0.3125 -0.203125 0.6875 -0.3125q0.265625 -0.0625 0.828125 -0.140625q1.125 -0.125 1.671875 -0.3125q0 -0.203125 0 -0.25q0 -0.578125 -0.265625 -0.8125q-0.359375 -0.3125 -1.0625 -0.3125q-0.65625 0 -0.984375 0.234375q-0.3125 0.234375 -0.453125 0.8125l-0.921875 -0.125q0.125 -0.578125 0.40625 -0.9375q0.296875 -0.375 0.828125 -0.5625q0.546875 -0.203125 1.25 -0.203125q0.71875 0 1.15625 0.171875q0.4375 0.171875 0.640625 0.421875q0.21875 0.25 0.296875 0.640625q0.046875 0.234375 0.046875 0.859375l0 1.25q0 1.296875 0.0625 1.65625q0.0625 0.34375 0.234375 0.65625l-0.96875 0q-0.15625 -0.296875 -0.1875 -0.6875zm-0.078125 -2.078125q-0.515625 0.203125 -1.53125 0.34375q-0.578125 0.078125 -0.828125 0.1875q-0.234375 0.109375 -0.359375 0.3125q-0.125 0.1875 -0.125 0.4375q0 0.375 0.28125 0.625q0.28125 0.25 0.828125 0.25q0.53125 0 0.953125 -0.234375q0.421875 -0.234375 0.625 -0.65625q0.15625 -0.3125 0.15625 -0.9375l0 -0.328125zm2.3796387 2.765625l0 -7.625l0.9375 0l0 7.625l-0.9375 0zm7.640625 0l-2.953125 -7.625l1.09375 0l1.984375 5.53125q0.234375 0.671875 0.390625 1.25q0.1875 -0.625 0.421875 -1.25l2.0625 -5.53125l1.03125 0l-3.0 7.625l-1.03125 0zm3.8784485 -2.765625q0 -1.53125 0.84375 -2.265625q0.71875 -0.625 1.734375 -0.625q1.140625 0 1.859375 0.75q0.734375 0.75 0.734375 2.0625q0 1.0625 -0.328125 1.6875q-0.3125 0.609375 -0.921875 0.953125q-0.609375 0.328125 -1.34375 0.328125q-1.15625 0 -1.875 -0.734375q-0.703125 -0.75 -0.703125 -2.15625zm0.953125 0q0 1.0625 0.46875 1.59375q0.46875 0.53125 1.15625 0.53125q0.703125 0 1.15625 -0.53125q0.46875 -0.53125 0.46875 -1.625q0 -1.015625 -0.46875 -1.546875q-0.453125 -0.53125 -1.15625 -0.53125q-0.6875 0 -1.15625 0.53125q-0.46875 0.515625 -0.46875 1.578125zm5.3015137 2.765625l0 -7.625l0.9375 0l0 7.625l-0.9375 0zm6.008087 0l0 -0.8125q-0.65625 0.9375 -1.75 0.9375q-0.5 0 -0.921875 -0.1875q-0.421875 -0.1875 -0.625 -0.46875q-0.203125 -0.28125 -0.296875 -0.703125q-0.046875 -0.265625 -0.046875 -0.875l0 -3.421875l0.9375 0l0 3.0625q0 0.734375 0.046875 1.0q0.09375 0.359375 0.375 0.578125q0.296875 0.203125 0.703125 0.203125q0.421875 0 0.796875 -0.203125q0.375 -0.21875 0.515625 -0.59375q0.15625 -0.375 0.15625 -1.078125l0 -2.96875l0.9375 0l0 5.53125l-0.828125 0zm2.3015137 0l0 -5.53125l0.84375 0l0 0.78125q0.25 -0.40625 0.6875 -0.65625q0.4375 -0.25 0.984375 -0.25q0.609375 0 1.0 0.265625q0.390625 0.25 0.5625 0.703125q0.65625 -0.96875 1.703125 -0.96875q0.828125 0 1.265625 0.46875q0.4375 0.453125 0.4375 1.390625l0 3.796875l-0.921875 0l0 -3.484375q0 -0.5625 -0.09375 -0.796875q-0.09375 -0.25 -0.34375 -0.40625q-0.234375 -0.15625 -0.546875 -0.15625q-0.59375 0 -0.984375 0.390625q-0.375 0.390625 -0.375 1.25l0 3.203125l-0.9375 0l0 -3.59375q0 -0.625 -0.234375 -0.9375q-0.21875 -0.3125 -0.75 -0.3125q-0.390625 0 -0.734375 0.21875q-0.328125 0.203125 -0.484375 0.609375q-0.140625 0.390625 -0.140625 1.15625l0 2.859375l-0.9375 0zm12.6579895 -1.78125l0.96875 0.125q-0.234375 0.84375 -0.859375 1.3125q-0.609375 0.46875 -1.578125 0.46875q-1.203125 0 -1.921875 -0.75q-0.703125 -0.75 -0.703125 -2.09375q0 -1.390625 0.71875 -2.15625q0.71875 -0.78125 1.859375 -0.78125q1.109375 0 1.8125 0.765625q0.703125 0.75 0.703125 2.125q0 0.078125 0 0.234375l-4.125 0q0.046875 0.921875 0.515625 1.40625q0.46875 0.484375 1.15625 0.484375q0.515625 0 0.875 -0.265625q0.359375 -0.28125 0.578125 -0.875zm-3.078125 -1.515625l3.09375 0q-0.0625 -0.6875 -0.359375 -1.046875q-0.453125 -0.53125 -1.15625 -0.53125q-0.640625 0 -1.09375 0.4375q-0.4375 0.421875 -0.484375 1.140625z" fill-rule="nonzero"/><path fill="#ffffff" d="m327.93414 343.933l0 0c0 -4.276306 3.4666138 -7.7429504 7.74292 -7.7429504l66.68735 0c2.0535583 0 4.0230103 0.8157959 5.4750977 2.2678528c1.4520874 1.4520874 2.2678528 3.4215393 2.2678528 5.4750977l0 30.970825c0 4.276306 -3.4666443 7.74292 -7.7429504 7.74292l-66.68735 0c-4.276306 0 -7.74292 -3.4666138 -7.74292 -7.74292z" fill-rule="evenodd"/><path stroke="#000000" stroke-width="1.0" stroke-linejoin="round" stroke-linecap="butt" d="m327.93414 343.933l0 0c0 -4.276306 3.4666138 -7.7429504 7.74292 -7.7429504l66.68735 0c2.0535583 0 4.0230103 0.8157959 5.4750977 2.2678528c1.4520874 1.4520874 2.2678528 3.4215393 2.2678528 5.4750977l0 30.970825c0 4.276306 -3.4666443 7.74292 -7.7429504 7.74292l-66.68735 0c-4.276306 0 -7.74292 -3.4666138 -7.74292 -7.74292z" fill-rule="evenodd"/><path fill="#000000" d="m363.68076 363.15842l0 -7.625l1.015625 0l0 6.71875l3.75 0l0 0.90625l-4.765625 0zm7.3535767 0l-2.953125 -7.625l1.09375 0l1.984375 5.53125q0.234375 0.671875 0.390625 1.25q0.1875 -0.625 0.421875 -1.25l2.0625 -5.53125l1.03125 0l-3.0 7.625l-1.03125 0z" fill-rule="nonzero"/><path fill="#ffffff" d="m412.98724 343.933l0 0c0 -4.276306 3.4666443 -7.7429504 7.7429504 -7.7429504l66.68735 0c2.0535583 0 4.0230103 0.8157959 5.4750977 2.2678528c1.4520569 1.4520874 2.2678528 3.4215393 2.2678528 5.4750977l0 30.970825c0 4.276306 -3.4666443 7.74292 -7.7429504 7.74292l-66.68735 0c-4.276306 0 -7.7429504 -3.4666138 -7.7429504 -7.74292z" fill-rule="evenodd"/><path stroke="#000000" stroke-width="1.0" stroke-linejoin="round" stroke-linecap="butt" d="m412.98724 343.933l0 0c0 -4.276306 3.4666443 -7.7429504 7.7429504 -7.7429504l66.68735 0c2.0535583 0 4.0230103 0.8157959 5.4750977 2.2678528c1.4520569 1.4520874 2.2678528 3.4215393 2.2678528 5.4750977l0 30.970825c0 4.276306 -3.4666443 7.74292 -7.7429504 7.74292l-66.68735 0c-4.276306 0 -7.7429504 -3.4666138 -7.7429504 -7.74292z" fill-rule="evenodd"/><path fill="#000000" d="m448.7339 363.15842l0 -7.625l1.015625 0l0 6.71875l3.75 0l0 0.90625l-4.765625 0zm7.3535767 0l-2.953125 -7.625l1.09375 0l1.984375 5.53125q0.234375 0.671875 0.390625 1.25q0.1875 -0.625 0.421875 -1.25l2.0625 -5.53125l1.03125 0l-3.0 7.625l-1.03125 0z" fill-rule="nonzero"/><path fill="#ffffff" d="m275.2993 241.88168l15.330688 0l0 -28.963333l30.661438 0l0 28.963333l15.330688 0l-30.661407 28.800446z" fill-rule="evenodd"/><path stroke="#000000" stroke-width="1.0" stroke-linejoin="round" stroke-linecap="butt" d="m275.2993 241.88168l15.330688 0l0 -28.963333l30.661438 0l0 28.963333l15.330688 0l-30.661407 28.800446z" fill-rule="evenodd"/><path fill="#cfe2f3" d="m237.81825 189.15457l136.28346 0l0 17.889755l-136.28346 0z" fill-rule="evenodd"/><path stroke="#000000" stroke-width="1.0" stroke-linejoin="round" stroke-linecap="butt" d="m237.81825 189.15457l136.28346 0l0 17.889755l-136.28346 0z" fill-rule="evenodd"/><path fill="#000000" d="m249.14638 202.5282l0 -0.828125q-0.625 -0.078125 -1.015625 -0.265625q-0.375 -0.203125 -0.65625 -0.640625q-0.28125 -0.453125 -0.328125 -1.09375l0.828125 -0.15625q0.09375 0.671875 0.34375 0.984375q0.34375 0.4375 0.828125 0.484375l0 -2.609375q-0.515625 -0.09375 -1.046875 -0.390625q-0.390625 -0.21875 -0.609375 -0.609375q-0.203125 -0.390625 -0.203125 -0.875q0 -0.875 0.625 -1.421875q0.40625 -0.359375 1.234375 -0.453125l0 -0.390625l0.484375 0l0 0.390625q0.703125 0.078125 1.125 0.421875q0.546875 0.453125 0.65625 1.234375l-0.859375 0.125q-0.0625 -0.484375 -0.296875 -0.734375q-0.234375 -0.265625 -0.625 -0.34375l0 2.359375q0.609375 0.15625 0.8125 0.234375q0.390625 0.171875 0.625 0.421875q0.234375 0.234375 0.359375 0.578125q0.140625 0.328125 0.140625 0.703125q0 0.859375 -0.546875 1.4375q-0.53125 0.5625 -1.390625 0.59375l0 0.84375l-0.484375 0zm0 -7.1875q-0.484375 0.078125 -0.765625 0.390625q-0.265625 0.296875 -0.265625 0.734375q0 0.40625 0.234375 0.6875q0.234375 0.28125 0.796875 0.453125l0 -2.265625zm0.484375 5.671875q0.46875 -0.0625 0.78125 -0.421875q0.3125 -0.359375 0.3125 -0.875q0 -0.453125 -0.21875 -0.71875q-0.21875 -0.265625 -0.875 -0.484375l0 2.5zm7.312851 -2.375l-4.4218597 1.890625l0 -0.8125l3.4999847 -1.453125l-3.4999847 -1.4375l0 -0.8125l4.4218597 1.859375l0 0.765625zm7.023529 1.359375l0.84375 0.109375q-0.1875 0.75 -0.734375 1.15625q-0.546875 0.40625 -1.390625 0.40625q-1.0625 0 -1.6875 -0.65625q-0.609375 -0.65625 -0.609375 -1.828125q0 -1.21875 0.625 -1.890625q0.625 -0.6875 1.625 -0.6875q0.984375 0 1.59375 0.671875q0.609375 0.65625 0.609375 1.859375q0 0.0625 0 0.21875l-3.609375 0q0.046875 0.796875 0.453125 1.21875q0.40625 0.421875 1.015625 0.421875q0.453125 0 0.765625 -0.234375q0.3125 -0.234375 0.5 -0.765625zm-2.6875 -1.328125l2.703125 0q-0.0625 -0.609375 -0.3125 -0.90625q-0.390625 -0.46875 -1.015625 -0.46875q-0.5625 0 -0.953125 0.375q-0.375 0.375 -0.421875 1.0zm4.015991 2.890625l1.765625 -2.515625l-1.625 -2.328125l1.015625 0l0.75 1.140625q0.203125 0.328125 0.34375 0.546875q0.1875 -0.3125 0.359375 -0.53125l0.8125 -1.15625l0.984375 0l-1.671875 2.28125l1.796875 2.5625l-1.0 0l-1.0 -1.5l-0.265625 -0.40625l-1.265625 1.90625l-1.0 0zm7.0078125 -0.734375l0.109375 0.71875q-0.34375 0.078125 -0.609375 0.078125q-0.453125 0 -0.703125 -0.140625q-0.234375 -0.140625 -0.34375 -0.359375q-0.09375 -0.234375 -0.09375 -0.984375l0 -2.78125l-0.609375 0l0 -0.640625l0.609375 0l0 -1.1875l0.8125 -0.5l0 1.6875l0.828125 0l0 0.640625l-0.828125 0l0 2.828125q0 0.359375 0.046875 0.46875q0.046875 0.09375 0.140625 0.15625q0.09375 0.046875 0.28125 0.046875q0.140625 0 0.359375 -0.03125zm4.1072693 -0.828125l0.84375 0.109375q-0.1875 0.75 -0.734375 1.15625q-0.546875 0.40625 -1.390625 0.40625q-1.0625 0 -1.6875 -0.65625q-0.609375 -0.65625 -0.609375 -1.828125q0 -1.21875 0.625 -1.890625q0.625 -0.6875 1.625 -0.6875q0.984375 0 1.59375 0.671875q0.609375 0.65625 0.609375 1.859375q0 0.0625 0 0.21875l-3.609375 0q0.046875 0.796875 0.453125 1.21875q0.40625 0.421875 1.015625 0.421875q0.453125 0 0.765625 -0.234375q0.3125 -0.234375 0.5 -0.765625zm-2.6875 -1.328125l2.703125 0q-0.0625 -0.609375 -0.3125 -0.90625q-0.390625 -0.46875 -1.015625 -0.46875q-0.5625 0 -0.953125 0.375q-0.375 0.375 -0.421875 1.0zm4.562866 2.890625l0 -4.84375l0.75 0l0 0.6875q0.53125 -0.796875 1.53125 -0.796875q0.4375 0 0.796875 0.171875q0.375 0.15625 0.546875 0.40625q0.1875 0.25 0.265625 0.609375q0.046875 0.21875 0.046875 0.796875l0 2.96875l-0.828125 0l0 -2.9375q0 -0.5 -0.09375 -0.75q-0.09375 -0.25 -0.34375 -0.390625q-0.234375 -0.15625 -0.5625 -0.15625q-0.515625 0 -0.90625 0.328125q-0.375 0.328125 -0.375 1.265625l0 2.640625l-0.828125 0zm8.328491 0l0 -0.609375q-0.453125 0.71875 -1.34375 0.71875q-0.578125 0 -1.0625 -0.3125q-0.484375 -0.328125 -0.765625 -0.890625q-0.265625 -0.578125 -0.265625 -1.3125q0 -0.734375 0.234375 -1.3125q0.25 -0.59375 0.734375 -0.90625q0.484375 -0.328125 1.078125 -0.328125q0.4375 0 0.78125 0.1875q0.34375 0.1875 0.5625 0.484375l0 -2.390625l0.8125 0l0 6.671875l-0.765625 0zm-2.59375 -2.40625q0 0.921875 0.390625 1.390625q0.390625 0.453125 0.9375 0.453125q0.53125 0 0.90625 -0.4375q0.375 -0.4375 0.375 -1.34375q0 -1.0 -0.390625 -1.453125q-0.375 -0.46875 -0.9375 -0.46875q-0.546875 0 -0.921875 0.453125q-0.359375 0.4375 -0.359375 1.40625zm4.875366 2.40625l0 -0.9375l0.9375 0l0 0.9375l-0.9375 0zm2.0291748 -1.4375l0.8125 -0.140625q0.078125 0.5 0.390625 0.765625q0.3125 0.25 0.859375 0.25q0.578125 0 0.84375 -0.234375q0.28125 -0.234375 0.28125 -0.53125q0 -0.28125 -0.25 -0.4375q-0.171875 -0.109375 -0.84375 -0.28125q-0.890625 -0.234375 -1.25 -0.390625q-0.34375 -0.171875 -0.53125 -0.46875q-0.171875 -0.296875 -0.171875 -0.640625q0 -0.328125 0.140625 -0.59375q0.15625 -0.28125 0.40625 -0.46875q0.203125 -0.140625 0.53125 -0.234375q0.328125 -0.109375 0.703125 -0.109375q0.578125 0 1.0 0.171875q0.4375 0.15625 0.640625 0.4375q0.203125 0.28125 0.28125 0.75l-0.796875 0.109375q-0.0625 -0.375 -0.328125 -0.578125q-0.265625 -0.203125 -0.734375 -0.203125q-0.5625 0 -0.8125 0.1875q-0.234375 0.171875 -0.234375 0.4375q0 0.15625 0.09375 0.28125q0.109375 0.125 0.3125 0.21875q0.125 0.046875 0.734375 0.203125q0.859375 0.234375 1.203125 0.390625q0.34375 0.140625 0.53125 0.421875q0.203125 0.28125 0.203125 0.703125q0 0.40625 -0.234375 0.78125q-0.234375 0.359375 -0.6875 0.5625q-0.453125 0.1875 -1.015625 0.1875q-0.953125 0 -1.453125 -0.390625q-0.484375 -0.390625 -0.625 -1.15625zm4.9921875 1.4375l0 -6.671875l0.828125 0l0 2.390625q0.578125 -0.671875 1.453125 -0.671875q0.53125 0 0.921875 0.21875q0.40625 0.21875 0.578125 0.59375q0.171875 0.359375 0.171875 1.078125l0 3.0625l-0.828125 0l0 -3.0625q0 -0.625 -0.265625 -0.890625q-0.265625 -0.28125 -0.75 -0.28125q-0.375 0 -0.703125 0.1875q-0.3125 0.1875 -0.453125 0.515625q-0.125 0.3125 -0.125 0.890625l0 2.640625l-0.828125 0zm7.1701355 0.109375l1.9375 -6.90625l0.65625 0l-1.9375 6.90625l-0.65625 0zm6.341675 -0.109375l0 -0.609375q-0.453125 0.71875 -1.34375 0.71875q-0.578125 0 -1.0625 -0.3125q-0.484375 -0.328125 -0.765625 -0.890625q-0.265625 -0.578125 -0.265625 -1.3125q0 -0.734375 0.234375 -1.3125q0.25 -0.59375 0.734375 -0.90625q0.484375 -0.328125 1.078125 -0.328125q0.4375 0 0.78125 0.1875q0.34375 0.1875 0.5625 0.484375l0 -2.390625l0.8125 0l0 6.671875l-0.765625 0zm-2.59375 -2.40625q0 0.921875 0.390625 1.390625q0.390625 0.453125 0.9375 0.453125q0.53125 0 0.90625 -0.4375q0.375 -0.4375 0.375 -1.34375q0 -1.0 -0.390625 -1.453125q-0.375 -0.46875 -0.9375 -0.46875q-0.546875 0 -0.921875 0.453125q-0.359375 0.4375 -0.359375 1.40625zm7.953491 0.84375l0.84375 0.109375q-0.1875 0.75 -0.734375 1.15625q-0.546875 0.40625 -1.390625 0.40625q-1.0625 0 -1.6875 -0.65625q-0.609375 -0.65625 -0.609375 -1.828125q0 -1.21875 0.625 -1.890625q0.625 -0.6875 1.625 -0.6875q0.984375 0 1.59375 0.671875q0.609375 0.65625 0.609375 1.859375q0 0.0625 0 0.21875l-3.609375 0q0.046875 0.796875 0.453125 1.21875q0.40625 0.421875 1.015625 0.421875q0.453125 0 0.765625 -0.234375q0.3125 -0.234375 0.5 -0.765625zm-2.6875 -1.328125l2.703125 0q-0.0625 -0.609375 -0.3125 -0.90625q-0.390625 -0.46875 -1.015625 -0.46875q-0.5625 0 -0.953125 0.375q-0.375 0.375 -0.421875 1.0zm5.906616 2.890625l-1.828125 -4.84375l0.859375 0l1.03125 2.90625q0.171875 0.46875 0.3125 0.96875q0.109375 -0.375 0.3125 -0.921875l1.078125 -2.953125l0.84375 0l-1.84375 4.84375l-0.765625 0zm2.7109375 0.109375l1.9375 -6.90625l0.65625 0l-1.9375 6.90625l-0.65625 0zm4.5447693 -0.109375l-1.828125 -4.84375l0.859375 0l1.03125 2.90625q0.171875 0.46875 0.3125 0.96875q0.109375 -0.375 0.3125 -0.921875l1.078125 -2.953125l0.84375 0l-1.84375 4.84375l-0.765625 0zm6.4609375 0l0 -0.609375q-0.453125 0.71875 -1.34375 0.71875q-0.578125 0 -1.0625 -0.3125q-0.484375 -0.328125 -0.765625 -0.890625q-0.265625 -0.578125 -0.265625 -1.3125q0 -0.734375 0.234375 -1.3125q0.25 -0.59375 0.734375 -0.90625q0.484375 -0.328125 1.078125 -0.328125q0.4375 0 0.78125 0.1875q0.34375 0.1875 0.5625 0.484375l0 -2.390625l0.8125 0l0 6.671875l-0.765625 0zm-2.59375 -2.40625q0 0.921875 0.390625 1.390625q0.390625 0.453125 0.9375 0.453125q0.53125 0 0.90625 -0.4375q0.375 -0.4375 0.375 -1.34375q0 -1.0 -0.390625 -1.453125q-0.375 -0.46875 -0.9375 -0.46875q-0.546875 0 -0.921875 0.453125q-0.359375 0.4375 -0.359375 1.40625zm5.406616 2.40625l-0.765625 0l0 -6.671875l0.828125 0l0 2.375q0.515625 -0.65625 1.3125 -0.65625q0.453125 0 0.84375 0.1875q0.40625 0.171875 0.65625 0.5q0.265625 0.328125 0.40625 0.796875q0.15625 0.453125 0.15625 0.984375q0 1.234375 -0.625 1.921875q-0.609375 0.671875 -1.46875 0.671875q-0.859375 0 -1.34375 -0.71875l0 0.609375zm-0.015625 -2.453125q0 0.875 0.234375 1.25q0.390625 0.640625 1.046875 0.640625q0.546875 0 0.9375 -0.46875q0.390625 -0.46875 0.390625 -1.390625q0 -0.953125 -0.375 -1.390625q-0.375 -0.453125 -0.90625 -0.453125q-0.546875 0 -0.9375 0.46875q-0.390625 0.453125 -0.390625 1.34375zm9.888916 2.453125l-0.8125 0l0 -5.21875q-0.296875 0.28125 -0.78125 0.5625q-0.484375 0.28125 -0.859375 0.421875l0 -0.796875q0.6875 -0.328125 1.203125 -0.78125q0.515625 -0.453125 0.734375 -0.890625l0.515625 0l0 6.703125zm5.562866 -2.625l0 -0.78125l2.828125 0l0 2.484375q-0.65625 0.515625 -1.34375 0.78125q-0.6875 0.25 -1.421875 0.25q-0.984375 0 -1.796875 -0.421875q-0.796875 -0.421875 -1.203125 -1.21875q-0.40625 -0.796875 -0.40625 -1.78125q0 -0.96875 0.40625 -1.8125q0.40625 -0.84375 1.171875 -1.25q0.765625 -0.421875 1.765625 -0.421875q0.71875 0 1.296875 0.234375q0.59375 0.234375 0.921875 0.65625q0.34375 0.421875 0.515625 1.09375l-0.796875 0.21875q-0.15625 -0.5 -0.390625 -0.796875q-0.21875 -0.296875 -0.640625 -0.46875q-0.40625 -0.171875 -0.90625 -0.171875q-0.609375 0 -1.046875 0.1875q-0.4375 0.171875 -0.71875 0.484375q-0.265625 0.296875 -0.421875 0.65625q-0.25 0.625 -0.25 1.34375q0 0.890625 0.296875 1.5q0.3125 0.59375 0.90625 0.890625q0.59375 0.28125 1.25 0.28125q0.578125 0 1.125 -0.21875q0.546875 -0.21875 0.828125 -0.46875l0 -1.25l-1.96875 0z" fill-rule="nonzero"/></g></svg>